<?xml version="1.0" standalone="no"?>
<!DOCTYPE svg PUBLIC "-//W3C//DTD SVG 20010904//EN"
 "http://www.w3.org/TR/2001/REC-SVG-20010904/DTD/svg10.dtd">
<svg version="1.0" xmlns="http://www.w3.org/2000/svg"
 width="500.000000pt" height="424.000000pt" viewBox="0 0 1440.000000 740.000000"
 preserveAspectRatio="xMidYMid meet">
<metadata>
Created by potrace 1.16, written by Peter Selinger 2001-2019
</metadata>
<g transform="translate(0.000000,940.000000) scale(0.100000,-0.100000)"
fill="#000000" stroke="none">
<path d="M10998 9048 c-13 -13 -26 -22 -30 -21 -3 1 -9 -4 -12 -12 -3 -8 -1
-15 4 -15 6 0 10 -4 10 -10 0 -5 -7 -7 -15 -4 -11 4 -13 2 -9 -9 7 -20 -25
-84 -35 -68 -10 16 -29 -27 -25 -55 2 -15 -5 -28 -23 -39 -18 -12 -22 -19 -13
-25 9 -6 9 -12 -1 -29 -16 -24 -34 -29 -25 -5 3 9 2 12 -5 9 -5 -4 -7 -15 -4
-25 4 -13 -7 -28 -39 -55 -47 -39 -46 -35 -61 -170 -4 -27 -7 -58 -9 -67 -1
-10 -13 -30 -27 -45 -22 -25 -22 -26 -1 -9 27 23 30 20 21 -19 -4 -16 -7 -22
-8 -13 -2 29 -45 2 -57 -35 -6 -18 -20 -54 -30 -81 -14 -37 -16 -50 -6 -53 25
-9 11 -24 -20 -22 -43 4 -130 -40 -187 -94 l-44 -42 21 36 c26 43 27 49 8 49
-12 0 -46 -55 -46 -75 0 -3 -7 -13 -16 -22 -11 -12 -18 -13 -26 -5 -14 14 3
51 44 94 14 15 22 28 17 28 -4 0 -21 -16 -36 -35 -15 -19 -33 -35 -40 -35 -6
0 -34 -27 -62 -61 -28 -33 -51 -57 -51 -53 0 4 -6 0 -13 -10 -7 -9 -24 -17
-37 -17 -14 -1 -45 -9 -70 -19 -25 -10 -65 -24 -90 -31 -25 -7 -49 -16 -55
-20 -9 -6 -86 -23 -110 -24 -5 0 -12 -3 -15 -6 -5 -6 -154 -59 -166 -59 -3 0
-2 5 1 10 4 6 11 8 16 5 5 -4 9 1 9 9 0 12 -5 14 -26 6 -16 -7 -23 -7 -19 0 3
6 1 10 -4 10 -6 0 -11 -5 -11 -11 0 -6 -6 -9 -12 -6 -7 2 -25 -2 -40 -9 -15
-8 -39 -15 -53 -16 -14 -1 -25 -5 -25 -9 0 -8 -70 -27 -120 -33 -8 -1 -28 -9
-45 -18 -94 -51 -138 -69 -155 -65 -13 3 -20 -2 -24 -18 -7 -26 15 -75 56
-125 15 -19 28 -39 28 -44 0 -14 -30 15 -62 61 -23 34 -34 42 -49 38 -15 -5
-23 2 -38 37 -21 46 -28 28 -12 -29 8 -29 7 -31 -20 -37 -16 -3 -48 -15 -71
-26 -50 -24 -68 -25 -68 -5 0 22 -41 -6 -100 -66 -25 -25 -58 -53 -75 -62 -56
-31 -459 -199 -558 -233 -102 -35 -139 -43 -97 -20 14 8 28 12 33 9 4 -2 6 0
5 6 -2 5 6 17 17 26 11 9 -29 -9 -90 -39 -60 -31 -101 -48 -90 -38 20 18 36
43 63 96 11 20 38 40 101 70 82 39 84 41 51 43 -19 2 -65 8 -101 14 -52 9 -81
9 -133 -1 -37 -7 -70 -10 -73 -6 -6 6 5 11 50 20 15 4 27 10 27 14 0 9 -130
58 -143 54 -4 -1 -10 4 -13 12 -3 8 -13 12 -24 9 -10 -3 -21 0 -24 5 -3 6 -16
8 -28 4 -16 -4 -19 -2 -13 9 7 12 6 12 -7 1 -13 -10 -17 -10 -21 1 -7 19 -86
11 -147 -13 -99 -40 -291 -147 -332 -186 -24 -22 -55 -47 -68 -54 -24 -12 -23
-11 5 21 16 19 36 40 44 46 26 23 10 27 -89 21 -14 -1 -43 2 -65 5 -34 6 -37
6 -17 -4 36 -19 25 -29 -14 -13 -20 9 -40 12 -45 7 -5 -5 -15 -42 -23 -84 -13
-69 -51 -180 -41 -119 2 14 9 61 16 105 6 44 14 85 18 90 5 6 11 19 15 30 5
15 -1 11 -24 -12 -37 -38 -95 -51 -135 -30 -26 13 -25 14 27 9 50 -4 58 -2 91
28 21 18 37 41 37 51 0 10 5 19 10 19 6 0 10 -5 10 -11 0 -6 7 -3 15 5 19 19
40 75 31 83 -3 4 -6 -2 -6 -11 0 -10 -5 -16 -11 -14 -6 2 -10 7 -10 11 1 4 1
21 1 38 0 17 4 28 10 24 6 -4 10 8 10 29 0 36 14 56 24 34 3 -7 4 70 2 172 -4
145 -8 192 -21 218 -18 35 -35 34 -35 -1 0 -12 -7 -35 -15 -51 -17 -32 -19
-50 -6 -41 16 9 25 -62 26 -195 0 -110 -3 -135 -28 -210 -23 -70 -33 -88 -58
-103 -43 -24 -101 -31 -142 -18 -63 21 -64 30 -12 131 25 50 64 121 87 158 23
37 59 100 80 141 36 73 37 75 17 91 -10 10 -19 23 -19 29 0 6 -5 20 -12 30 -9
15 -7 34 10 92 26 88 28 131 6 164 -25 38 -35 30 -19 -16 17 -47 19 -97 6
-118 -7 -11 -14 -10 -40 8 -37 26 -39 35 -8 26 19 -6 18 -4 -8 20 l-30 28 30
-7 c34 -9 34 -7 -19 28 -39 26 -34 36 7 15 l22 -12 -20 22 c-11 13 -27 20 -37
18 -14 -4 -18 1 -19 21 -1 50 -14 65 -85 93 -38 16 -65 29 -61 29 18 0 103
-24 115 -33 8 -7 12 -5 12 5 0 8 -25 23 -62 36 -61 22 -62 22 -18 17 24 -3 50
-11 57 -17 9 -7 13 -7 13 1 0 6 -1 11 -3 11 -2 0 -35 11 -73 25 -60 23 -64 25
-27 21 23 -3 50 -9 60 -13 10 -3 15 -3 12 0 -3 4 -37 18 -75 32 l-69 26 50 -5
50 -6 -60 21 c-76 26 -82 33 -25 25 40 -5 42 -5 15 5 -62 22 -61 21 -35 29 23
7 21 8 -18 15 -47 8 -66 24 -30 26 17 1 14 3 -12 10 -65 18 -66 19 -50 29 12
8 10 10 -7 10 -13 0 -23 5 -23 10 0 6 15 9 36 7 19 -3 32 -1 27 3 -10 10 -116
30 -160 30 -23 0 -33 5 -33 15 0 8 -9 15 -21 15 -16 0 -19 -4 -14 -22 5 -16
-8 -6 -40 30 -26 28 -52 52 -57 52 -7 0 -6 -5 1 -14 9 -11 7 -15 -9 -19 -11
-3 -20 -1 -20 4 0 5 -9 9 -21 9 -11 0 -18 -4 -15 -9 4 -5 -3 -7 -14 -4 -11 3
-17 9 -14 14 3 5 0 9 -5 9 -6 0 -11 -3 -11 -7 0 -5 -35 -8 -77 -8 -110 -1
-160 -14 -277 -71 -48 -23 -54 -29 -43 -42 10 -13 9 -15 -8 -8 -47 19 -52 17
-107 -43 -59 -63 -121 -176 -152 -276 -10 -33 -21 -67 -24 -75 -13 -35 -17
-223 -7 -270 4 -19 9 -80 10 -135 3 -111 16 -209 39 -300 9 -32 16 -65 16 -71
0 -7 -28 -30 -63 -52 -59 -37 -86 -75 -47 -65 8 2 24 -5 34 -16 11 -12 14 -21
8 -21 -6 0 -14 5 -17 10 -11 18 -35 11 -28 -7 6 -15 4 -16 -9 -5 -9 7 -16 28
-16 47 0 29 7 40 41 65 22 16 45 31 51 33 6 3 7 8 2 13 -5 5 -11 4 -13 -3 -3
-7 -12 -13 -22 -13 -9 0 -30 -13 -46 -30 -16 -16 -30 -28 -32 -26 -5 5 19 56
27 56 13 0 73 60 67 67 -4 3 -2 12 4 20 9 10 8 13 -2 13 -12 0 -12 2 -1 9 9 5
1 10 -24 14 -23 4 -41 2 -45 -4 -7 -13 -49 -3 -49 12 0 5 -15 10 -32 10 -31 2
-31 2 -5 6 53 8 26 18 -39 15 -52 -3 -65 -1 -62 10 8 22 47 36 137 48 110 15
145 28 76 29 -68 1 -198 -23 -268 -49 -63 -24 -97 -43 -185 -106 -53 -38 -59
-45 -81 -114 -32 -99 -38 -207 -17 -297 21 -94 21 -115 -1 -112 -35 3 -41 -2
-56 -46 -9 -24 -13 -44 -9 -44 29 4 52 -3 47 -13 -3 -7 2 -3 11 10 l17 23 23
-22 c13 -13 24 -18 24 -13 1 11 98 -188 135 -276 15 -36 33 -78 40 -95 7 -16
19 -48 26 -70 6 -22 25 -68 40 -103 16 -34 29 -65 29 -69 0 -3 14 -30 31 -60
48 -84 55 -49 9 42 -60 116 -136 327 -125 345 3 4 -2 10 -9 13 -8 3 -20 25
-27 49 -7 24 -18 50 -24 58 -27 33 -77 149 -69 161 4 7 3 10 -3 6 -6 -4 -13 3
-17 16 -9 35 -7 38 13 27 13 -7 22 -7 26 0 11 17 19 12 93 -55 40 -36 68 -65
63 -65 -9 0 -45 29 -109 88 -47 43 -55 32 -9 -13 21 -20 37 -33 37 -30 0 8
100 -97 111 -118 10 -17 8 -17 -13 -6 -13 7 -29 19 -36 28 -23 28 -2 -10 28
-49 43 -56 45 -64 16 -45 -14 10 -26 21 -26 25 0 4 -7 10 -15 14 -9 3 -1 -14
17 -39 18 -25 43 -48 56 -51 12 -3 22 -14 22 -23 0 -16 78 -101 93 -101 4 0
-2 18 -13 41 -12 23 -19 43 -17 46 5 4 32 -50 62 -122 6 -16 22 -51 33 -78 22
-48 29 -93 13 -83 -4 3 -19 -31 -32 -76 -37 -131 -32 -315 17 -572 3 -16 7
-33 10 -38 3 -4 2 -8 -3 -8 -4 0 -42 53 -83 118 -41 64 -90 132 -108 150 -17
18 -32 37 -32 42 0 5 -6 7 -12 5 -8 -3 -23 15 -38 42 -13 27 -27 50 -31 53 -3
3 -27 57 -53 120 -26 63 -60 144 -76 180 -15 36 -40 97 -54 136 -15 39 -49
103 -76 142 -40 56 -57 72 -83 77 -112 22 -251 83 -333 146 -61 47 -128 129
-166 201 -39 75 -35 89 12 43 22 -21 40 -34 40 -27 0 7 -4 12 -8 12 -5 0 -14
11 -20 25 -9 20 -9 23 3 18 8 -3 15 -9 15 -14 0 -6 8 -5 19 1 25 13 28 13 34
-4 4 -11 1 -13 -11 -10 -9 3 11 -10 46 -28 34 -18 62 -38 62 -44 0 -7 7 -15
16 -18 24 -9 31 -7 14 5 -11 8 -9 9 10 3 14 -4 26 -10 28 -14 4 -9 42 -1 59
13 27 20 58 -1 82 -55 13 -29 34 -63 47 -75 14 -13 23 -27 20 -32 -3 -5 1 -14
9 -21 9 -8 15 -8 15 -2 0 6 -6 13 -12 16 -7 3 2 3 21 0 31 -4 33 -3 29 21 -3
14 -1 28 5 32 5 3 7 1 3 -5 -3 -6 -2 -14 4 -17 6 -4 9 -1 8 7 -2 7 3 12 10 10
8 -1 11 2 7 8 -3 6 -11 8 -16 5 -5 -4 -9 -1 -9 5 0 6 -6 8 -12 4 -7 -4 -10 -3
-5 1 4 5 -4 21 -19 36 -17 17 -22 29 -15 34 7 4 10 1 9 -7 -2 -7 3 -12 10 -10
8 1 11 -2 8 -7 -4 -5 -2 -12 3 -15 19 -12 4 26 -22 55 -14 17 -34 57 -43 89
-9 33 -20 58 -23 56 -4 -3 -8 7 -10 22 -4 42 -8 67 -10 67 -2 0 -4 8 -6 17 -2
10 0 17 3 17 19 -3 19 6 -2 59 -12 31 -26 55 -30 52 -4 -3 -12 3 -17 13 -6 9
-14 15 -20 12 -15 -10 -10 5 12 36 11 16 22 39 24 51 7 38 137 131 284 205 95
47 95 48 -23 73 -62 13 -64 25 -6 33 19 3 -5 3 -54 1 -61 -3 -94 0 -105 9 -10
8 -13 9 -8 0 5 -8 -1 -11 -20 -8 -16 2 -30 5 -33 6 -14 5 -70 3 -70 -3 0 -4
-7 -5 -16 -1 -12 4 -13 7 -3 14 18 11 5 21 -25 22 -14 0 -23 3 -20 8 7 11 -42
23 -57 13 -8 -5 -11 -2 -7 8 5 11 0 14 -19 10 -20 -4 -24 -2 -18 8 6 10 3 12
-13 8 -12 -4 -22 -3 -22 0 0 16 -61 33 -91 27 -29 -7 -31 -5 -24 16 6 24 6 24
-10 4 -13 -17 -17 -17 -25 -6 -7 12 -11 12 -24 2 -11 -9 -16 -10 -16 -2 0 13
-47 15 -52 2 -1 -4 -28 -11 -58 -14 -30 -3 -46 -2 -35 2 11 4 38 15 60 26 22
10 51 19 64 21 13 2 31 6 40 10 55 25 207 9 326 -32 75 -27 274 -64 340 -64
51 0 156 -30 222 -64 52 -26 89 -34 79 -17 -7 11 21 8 31 -4 4 -4 2 -5 -6 0
-9 5 -12 4 -7 -3 9 -16 39 -15 55 1 11 10 13 9 7 -1 -5 -9 1 -12 23 -10 17 1
31 6 31 10 0 4 9 8 20 8 11 0 19 5 17 11 -1 6 5 13 13 14 9 2 16 -5 16 -15 0
-10 -5 -16 -11 -14 -5 3 -2 -1 8 -9 9 -8 27 -14 40 -13 22 1 22 3 17 106 -3
58 -5 156 -5 218 0 61 -3 112 -7 112 -5 0 -8 -48 -8 -106 0 -94 -2 -105 -15
-94 -12 10 -13 16 -3 27 6 8 7 13 2 11 -5 -2 -9 2 -9 7 0 6 3 9 6 8 3 -1 6 5
6 13 0 8 -5 14 -10 14 -5 0 -4 6 2 14 8 10 9 16 1 21 -6 4 -9 1 -8 -7 2 -7 -4
-12 -12 -10 -12 3 -13 1 -2 -9 18 -20 14 -33 -5 -18 -16 13 -17 12 -4 -3 7
-10 10 -18 6 -18 -4 0 -2 -6 4 -14 8 -10 9 -16 1 -21 -5 -3 -10 -15 -10 -26 0
-10 -6 -19 -14 -19 -16 0 -29 27 -16 35 5 3 10 0 13 -7 2 -7 3 -5 2 4 -2 9 0
19 4 21 3 2 1 3 -5 1 -6 -1 -18 3 -25 9 -11 10 -11 9 -1 -5 9 -10 9 -18 3 -22
-6 -4 -8 -13 -5 -21 4 -9 0 -12 -13 -10 -10 2 -20 4 -22 4 -2 1 4 11 15 23 12
14 13 18 3 10 -16 -12 -29 -7 -29 10 0 5 4 7 9 4 8 -5 8 22 1 32 -2 1 -3 6 -4
11 0 5 -5 13 -9 18 -5 4 -8 3 -7 -2 5 -21 -1 -29 -10 -15 -8 12 -9 11 -7 -5 2
-11 9 -33 16 -49 9 -23 9 -32 0 -40 -9 -8 -10 -8 -5 1 3 6 2 15 -4 18 -6 4
-10 3 -9 -2 4 -21 -3 -31 -18 -28 -10 1 -23 -2 -30 -7 -8 -7 -10 -3 -6 11 6
22 -11 29 -23 9 -5 -7 -3 -8 6 -3 9 5 11 4 6 -4 -10 -16 -25 -4 -21 18 2 10
-3 18 -11 18 -9 0 -11 -4 -4 -12 11 -14 -6 -33 -27 -29 -7 1 -21 2 -30 3 -15
1 -15 3 -4 10 17 11 23 39 11 46 -5 3 -7 -4 -5 -15 2 -11 0 -20 -6 -20 -9 0
-11 8 -12 48 0 12 -2 20 -5 17 -3 -2 -11 0 -19 6 -11 9 -11 15 -1 28 7 9 8 13
4 9 -5 -4 -15 -3 -23 4 -11 9 -10 15 8 35 13 12 19 24 16 24 -4 1 -13 2 -19 3
-7 1 -12 10 -10 21 2 17 1 17 -7 5 -13 -18 -13 -18 -16 45 -2 36 -6 49 -16 47
-8 -2 -11 0 -7 3 4 4 3 16 -2 25 -11 20 10 46 26 32 4 -4 3 0 -4 9 -7 10 -8
19 -2 25 7 7 2 10 -13 10 -16 0 -23 -6 -24 -20 -1 -12 1 -15 4 -8 3 6 9 9 14
6 6 -3 5 -11 -2 -20 -9 -12 -15 -12 -28 -2 -9 8 -8 3 4 -10 14 -17 15 -23 5
-20 -8 2 -20 10 -27 18 -10 12 -11 10 -7 -12 2 -16 1 -28 -4 -28 -13 0 -42 34
-42 50 0 9 -3 10 -14 1 -10 -9 -17 -7 -27 6 -13 16 -12 17 4 4 16 -13 17 -11
15 18 -3 42 -10 45 -39 21 -13 -11 -20 -19 -15 -20 5 0 1 -10 -10 -22 -10 -12
-14 -18 -7 -15 6 4 14 3 18 -3 3 -5 -3 -10 -13 -10 -11 0 -23 7 -26 16 -9 23
-8 24 12 17 14 -5 14 -3 -3 11 -11 10 -14 14 -7 11 8 -4 23 4 38 20 25 27 31
41 14 30 -5 -3 -10 -1 -10 6 0 7 -3 10 -6 7 -5 -5 -7 -14 -13 -48 -1 -3 -5 2
-11 10 -5 9 -5 19 1 26 7 8 6 15 -2 20 -7 4 -9 3 -5 -4 3 -6 2 -13 -3 -17 -6
-3 -7 -13 -4 -22 4 -10 2 -14 -4 -10 -6 4 -9 -7 -8 -29 1 -19 -2 -37 -7 -40
-5 -3 -8 -2 -7 3 3 19 -2 33 -12 33 -5 0 -7 -4 -4 -10 3 -5 0 -7 -9 -4 -8 3
-13 13 -11 23 2 10 -3 18 -10 18 -8 0 -11 -5 -7 -11 10 -17 11 -36 2 -36 -5 0
-11 8 -13 18 -3 9 -4 5 -4 -9 1 -16 6 -25 13 -22 7 2 15 -1 20 -8 4 -8 3 -10
-4 -5 -7 4 -12 2 -12 -5 0 -8 -4 -8 -15 1 -8 7 -12 16 -9 21 5 8 -10 13 -30
10 -5 -1 -6 5 -2 14 3 9 2 13 -4 10 -6 -3 -10 -14 -10 -23 0 -14 -2 -15 -10
-2 -6 10 -4 21 8 35 14 16 14 17 1 7 -9 -6 -19 -9 -22 -6 -3 4 -4 -5 -2 -19 5
-26 -10 -44 -35 -42 -8 1 -22 -2 -31 -6 -10 -5 -16 -3 -16 6 0 7 6 11 14 8 9
-4 11 0 7 11 -4 11 -13 15 -22 11 -9 -3 -13 -3 -10 1 13 13 -12 43 -32 39 -17
-3 -18 -1 -7 16 11 18 13 18 25 2 7 -10 18 -17 24 -15 6 2 8 -4 4 -13 -3 -9
-2 -13 4 -10 6 3 10 2 10 -2 0 -5 7 -18 16 -29 15 -18 15 -18 5 3 -15 30 -14
38 4 23 8 -7 13 -16 10 -20 -3 -5 0 -12 6 -16 8 -5 9 -3 4 6 -6 9 -4 11 6 5
11 -7 12 -6 3 6 -12 16 -12 29 -1 45 4 7 0 17 -8 24 -12 10 -14 8 -10 -9 2
-11 0 -23 -6 -26 -5 -4 -9 0 -9 7 0 9 -3 9 -10 -2 -6 -10 -10 -11 -10 -2 0 18
4 27 12 25 3 -1 5 5 4 14 -2 9 -8 18 -15 19 -6 1 -7 0 -1 -3 5 -2 7 -9 4 -14
-3 -6 -11 -5 -20 2 -12 9 -12 15 -2 27 10 13 10 14 1 8 -12 -7 -18 5 -14 27 1
5 -3 6 -9 2 -7 -4 -7 -12 0 -26 6 -10 8 -19 4 -19 -4 0 0 -8 9 -18 10 -10 14
-22 10 -25 -8 -9 -38 33 -38 53 0 8 -7 15 -15 15 -8 0 -14 8 -12 17 1 9 -2 19
-8 23 -8 5 -7 12 2 23 11 15 11 15 -3 5 -21 -17 -33 -5 -16 16 11 14 10 14 -5
2 -16 -12 -22 -9 -20 10 2 13 -29 4 -45 -13 -14 -15 -14 -19 -3 -16 8 2 14 -3
12 -10 -1 -8 2 -11 7 -8 5 3 14 -1 20 -8 8 -9 8 -17 2 -20 -5 -3 -12 0 -14 6
-4 9 -6 10 -6 1 -1 -6 3 -14 9 -18 5 -3 7 -12 3 -20 -3 -8 0 -16 6 -16 6 -1
17 -2 24 -3 6 -1 15 3 19 8 10 14 40 16 35 3 -2 -7 -9 -12 -16 -12 -6 0 -16
-7 -21 -15 -9 -13 -10 -13 -10 0 0 13 -1 13 -10 0 -6 -9 -5 -17 2 -21 7 -5 7
-12 -2 -25 -9 -16 -11 -16 -6 -2 3 10 1 20 -4 23 -5 3 -6 13 -3 22 5 11 3 14
-6 9 -7 -5 -11 -17 -8 -27 3 -11 1 -16 -5 -13 -5 3 -7 18 -3 32 5 22 4 24 -9
13 -9 -7 -13 -18 -9 -25 3 -6 2 -7 -3 -3 -5 5 -9 12 -10 15 0 4 -6 20 -13 36
-15 36 -25 29 -11 -8 6 -18 6 -25 0 -21 -6 3 -10 14 -10 23 0 15 -2 15 -10 2
-7 -11 -10 -11 -10 -2 0 7 -5 10 -10 7 -8 -5 -7 -12 2 -23 10 -15 10 -15 -2
-4 -8 7 -16 17 -16 23 -1 5 -2 14 -3 19 0 6 -5 10 -11 10 -5 0 -7 -8 -4 -17 5
-17 5 -17 -6 0 -12 19 -35 24 -24 5 4 -8 3 -10 -2 -5 -5 5 -9 14 -9 20 0 7 -6
13 -12 13 -7 1 -15 3 -18 4 -3 1 -9 4 -15 5 -5 1 -13 4 -17 5 -5 1 -12 2 -16
1 -4 -1 -10 6 -14 15 -5 13 -7 13 -14 2 -7 -11 -9 -11 -9 1 0 9 -5 8 -17 -6
-10 -10 -15 -14 -10 -9 9 12 10 32 0 23 -3 -4 -13 -1 -21 6 -13 10 -15 9 -9
-6 4 -11 3 -16 -4 -12 -5 4 -7 16 -3 28 6 18 5 20 -8 10 -17 -14 -38 0 -38 27
-1 9 -6 6 -14 -10 -8 -13 -12 -33 -10 -44 2 -10 0 -15 -4 -12 -4 4 -8 12 -8
17 -3 22 -5 23 -15 9 -9 -13 -9 -13 -7 0 2 9 -1 17 -7 18 -5 1 -10 -2 -10 -7
0 -5 -3 -12 -7 -16 -3 -4 -5 0 -4 9 1 8 5 19 9 22 4 4 2 13 -3 20 -6 6 -10 16
-9 20 3 20 -2 35 -10 29 -10 -6 -7 -37 5 -57 5 -7 3 -8 -6 -3 -9 6 -10 1 -5
-16 5 -19 2 -17 -14 9 -25 38 -29 39 -41 10 l-10 -23 3 24 c1 13 -3 26 -10 28
-8 3 -11 -3 -8 -17 2 -11 0 -18 -6 -15 -5 4 -7 10 -4 15 3 5 0 12 -6 15 -5 4
-8 13 -5 21 3 7 1 16 -4 19 -13 8 -18 -18 -8 -40 9 -19 9 -19 -6 -1 -9 10 -12
24 -9 30 4 6 6 23 5 38 -1 15 2 28 7 28 5 0 7 -8 4 -18 -2 -10 3 -24 11 -31
10 -8 16 -9 16 -3 0 6 -4 14 -10 17 -13 8 -13 25 1 25 5 0 8 -4 4 -9 -3 -6 4
-8 15 -6 14 3 18 0 13 -8 -4 -7 2 -5 12 3 17 13 18 13 10 0 -4 -8 -5 -12 0 -8
4 4 15 2 23 -5 13 -10 14 -9 7 3 -7 12 -6 13 7 3 8 -7 19 -9 23 -5 5 4 5 1 0
-7 -5 -10 -4 -12 4 -7 6 4 9 12 6 17 -4 5 -1 9 5 9 7 0 9 -7 6 -16 -3 -8 -2
-12 4 -9 6 4 7 -1 4 -12 -6 -16 -4 -15 10 2 10 11 15 14 11 8 -3 -7 -1 -21 5
-30 9 -15 10 -14 5 7 l-6 25 14 -24 c8 -13 16 -20 19 -15 3 5 3 2 1 -6 -2 -10
3 -8 13 5 14 17 16 17 10 2 -3 -10 -2 -16 3 -13 5 4 7 -4 5 -16 -4 -21 -4 -21
4 -3 l9 20 5 -20 6 -20 1 20 c2 16 5 14 16 -10 l14 -30 -5 30 -5 30 15 -30 c8
-16 15 -23 15 -15 1 13 2 13 11 0 9 -13 10 -13 10 0 0 13 1 13 10 0 9 -13 10
-13 10 0 1 12 3 11 11 -3 6 -9 14 -15 20 -12 5 4 12 -1 15 -10 6 -13 8 -14 15
-3 7 10 9 10 9 -2 0 -13 1 -13 10 0 9 13 10 13 10 0 0 -13 2 -13 11 0 9 13 10
12 5 -3 -3 -10 -2 -16 4 -12 6 3 7 -1 4 -9 -7 -19 7 -21 25 -3 10 8 12 8 7 0
-3 -6 -1 -15 5 -19 7 -4 9 -3 6 3 -3 5 0 10 8 10 8 0 11 -5 8 -11 -4 -6 2 -4
12 4 15 12 17 12 10 1 -5 -10 -4 -12 4 -7 6 4 11 4 10 -1 -1 -4 -1 -17 1 -28
l1 -20 9 20 c8 19 9 19 9 1 1 -11 4 -17 7 -13 4 3 3 14 -1 24 -10 22 -12 29
-14 46 -1 8 -4 7 -11 -3 -5 -8 -10 -12 -11 -7 -5 27 -3 34 15 54 10 13 16 26
13 30 -4 3 -7 1 -7 -6 0 -7 -5 -9 -10 -6 -8 5 -8 11 0 20 9 10 7 13 -7 10 -10
-2 -20 -4 -22 -4 -2 -1 3 -9 13 -20 15 -17 15 -19 -1 -32 -15 -12 -16 -12 -10
3 3 9 -1 22 -9 29 -13 10 -12 14 3 31 14 15 14 19 3 16 -9 -2 -14 3 -12 12 3
11 -1 10 -16 -4 -20 -17 -21 -17 -31 2 -6 11 -7 23 -3 27 4 5 1 5 -6 1 -9 -5
-9 -13 -2 -26 7 -13 7 -21 0 -25 -10 -6 -12 -5 -14 17 -1 13 -54 19 -62 7 -2
-4 4 -6 15 -4 11 2 29 -7 42 -21 12 -13 19 -24 15 -24 -5 0 -3 -6 3 -13 6 -8
8 -17 5 -20 -9 -9 -32 16 -27 29 5 13 -25 40 -34 30 -3 -3 -1 -6 6 -6 7 0 9
-5 5 -12 -4 -7 -3 -8 4 -4 7 4 12 3 12 -2 0 -6 -6 -12 -14 -15 -9 -4 -16 4
-21 21 -4 18 -9 22 -14 13 -5 -7 -10 -9 -13 -5 -4 8 -3 31 2 37 1 1 3 9 5 18
3 15 -11 18 -35 9 -3 -1 -9 -1 -15 0 -5 1 0 -9 13 -22 12 -14 19 -27 16 -31
-4 -4 -18 8 -32 26 -14 17 -22 24 -19 15 3 -10 2 -20 -3 -23 -4 -3 -10 1 -13
7 -5 16 11 50 22 44 4 -3 8 1 8 8 0 7 -6 13 -13 13 -7 0 -11 -3 -9 -6 2 -4 -6
-18 -17 -31 -13 -16 -18 -19 -14 -7 3 9 2 17 -3 17 -5 0 -12 -12 -16 -27 -5
-21 -8 -24 -16 -12 -5 7 -8 21 -8 29 0 10 3 8 9 -5 8 -17 8 -16 7 7 -1 15 -3
25 -6 23 -2 -3 -14 3 -25 12 -21 18 -21 18 -2 -4 11 -13 14 -23 8 -23 -6 0
-14 5 -17 10 -4 6 -11 7 -17 4 -8 -5 -9 -1 -5 12 7 18 6 18 -9 -1 -16 -20 -16
-20 -11 3 3 12 1 20 -4 16 -5 -3 -9 -12 -9 -20 0 -8 -4 -14 -9 -14 -5 0 -8 8
-7 17 0 10 -6 18 -14 18 -8 1 -14 6 -13 11 1 6 -5 11 -12 11 -10 0 -12 -4 -5
-12 5 -7 7 -15 3 -19 -4 -4 -13 4 -20 16 l-14 23 6 -25 c6 -24 5 -24 -9 -6
-12 15 -13 23 -4 35 7 9 8 13 4 9 -5 -4 -16 -2 -24 5 -13 10 -14 9 -7 -3 11
-18 17 -50 10 -50 -3 0 -10 10 -15 23 -8 20 -9 20 -10 2 0 -16 -2 -17 -10 -5
-5 9 -5 19 1 26 7 8 6 14 -1 19 -6 4 -9 3 -8 -2 2 -4 -1 -9 -7 -10 -5 -2 -10
1 -10 6 0 5 -3 12 -8 15 -4 3 -5 3 -2 -1 7 -9 -16 -34 -26 -27 -5 3 -9 10 -9
15 0 6 4 8 8 5 5 -3 9 1 9 9 0 11 -4 12 -14 4 -7 -7 -12 -19 -11 -28 2 -9 -3
-15 -10 -13 -6 1 -11 -3 -10 -9 2 -6 -2 -13 -9 -16 -8 -3 -11 3 -8 16 2 11 0
23 -4 25 -4 3 -7 21 -6 40 1 20 -1 33 -6 31 -4 -3 -6 -17 -3 -31 3 -19 1 -24
-8 -18 -9 5 -8 2 2 -10 18 -23 22 -48 7 -43 -7 2 -12 9 -12 15 0 6 -7 17 -15
24 -12 11 -12 11 -2 -3 6 -9 8 -19 4 -23 -4 -4 -7 -13 -7 -19 -1 -7 -6 -11
-13 -9 -14 2 -16 -14 -3 -23 5 -3 17 5 25 17 9 12 16 17 16 10 0 -7 5 -10 10
-7 6 4 10 3 9 -2 -3 -19 2 -36 8 -29 5 4 8 12 8 17 0 8 7 11 20 8 3 -1 15 -2
28 -3 18 -1 22 -7 23 -34 0 -18 -4 -36 -8 -38 -5 -3 -3 -13 4 -22 11 -15 11
-15 -3 -5 -9 7 -20 9 -24 5 -5 -4 -5 -2 -2 4 4 6 0 20 -9 30 -14 18 -15 18 -8
-6 4 -17 -4 -9 -26 23 -25 37 -35 45 -45 37 -8 -6 -12 -19 -10 -29 2 -10 -2
-18 -9 -18 -7 0 -13 7 -12 16 1 9 -3 17 -9 18 -5 1 -8 -6 -7 -15 2 -9 1 -14
-3 -10 -6 6 -12 28 -14 53 -1 6 -5 4 -10 -4 -5 -8 -8 -19 -7 -25 2 -6 1 -8 -1
-3 -3 4 -10 4 -15 1 -6 -4 -8 -2 -4 4 3 6 2 13 -4 17 -5 3 -10 0 -10 -7 0 -9
-3 -9 -10 2 -9 13 -10 13 -10 0 0 -12 -2 -12 -9 -2 -9 15 -20 15 -39 -1 -7 -6
-12 -6 -11 -1 1 5 1 16 -1 24 -1 11 -4 9 -10 -5 -8 -19 -9 -19 -9 -1 -1 14 -4
16 -14 7 -8 -6 -17 -8 -20 -4 -4 3 -7 0 -7 -8 -1 -10 -4 -8 -11 4 -10 18 -12
18 -30 1 -10 -9 -19 -13 -19 -8 0 5 -7 -2 -16 -14 -8 -12 -19 -22 -25 -22 -5
0 0 9 11 20 20 20 19 47 -1 34 -5 -3 -7 -9 -4 -14 3 -5 1 -11 -4 -14 -10 -7
-9 13 1 29 4 6 3 17 -1 24 -6 9 -11 4 -16 -16 -5 -15 -7 -32 -6 -36 1 -5 -3
-6 -9 -2 -7 4 -7 13 1 26 5 11 8 25 5 32 -3 8 -5 8 -5 -2 -1 -11 -4 -11 -16
-1 -9 8 -15 9 -15 2 0 -6 5 -14 10 -17 8 -5 8 -11 1 -19 -7 -9 -7 -17 2 -26
10 -12 9 -12 -4 -2 -9 6 -20 8 -25 4 -4 -4 -4 0 2 8 6 8 9 21 8 28 -1 6 -2 17
-3 23 0 5 -5 8 -10 4 -6 -3 -8 -14 -6 -25 2 -12 0 -18 -5 -15 -5 3 -11 1 -15
-5 -4 -6 -10 -8 -15 -5 -5 3 -15 -4 -23 -15 -7 -11 -17 -17 -20 -13 -4 3 2 12
12 19 13 9 19 26 19 49 0 32 -1 34 -13 18 -9 -12 -10 -22 -4 -30 7 -7 6 -14
-3 -19 -23 -15 -37 -12 -33 5 4 22 -9 44 -28 47 -9 1 -15 -7 -15 -24 0 -24 2
-24 14 -8 12 17 13 17 11 -2 0 -11 -6 -20 -12 -19 -5 1 -9 -5 -7 -13 3 -11 0
-11 -15 3 -18 16 -20 16 -37 -1 -15 -15 -16 -15 -11 0 7 18 -8 19 -35 3 -9 -5
-8 -1 4 13 10 12 21 20 25 19 3 -1 6 3 6 8 0 6 -3 9 -8 7 -4 -1 -6 4 -5 10 2
9 -10 13 -37 12 -34 0 -40 3 -41 20 -3 53 -9 84 -15 80 -4 -2 -5 -14 -3 -27 4
-16 1 -14 -10 8 -8 17 -15 23 -16 15 0 -10 -6 -6 -15 10 -9 15 -14 19 -15 10
0 -13 -1 -13 -10 0 -7 12 -11 8 -16 -18 -7 -34 -17 -35 -19 -2 -1 10 2 17 6
14 4 -2 7 5 6 15 -1 18 -3 19 -18 5 -15 -14 -18 -13 -33 8 -9 12 -16 28 -16
34 0 6 -7 17 -14 24 -11 8 -9 -1 5 -29 24 -51 24 -59 -2 -35 -11 10 -20 14
-19 9 4 -20 0 -35 -11 -35 -5 0 -8 4 -5 9 3 5 -1 12 -9 15 -9 3 -18 -1 -22
-10 -5 -13 -7 -13 -14 -2 -7 10 -9 10 -9 -2 0 -13 -2 -13 -11 0 -9 13 -10 12
-5 -2 7 -22 -8 -32 -23 -14 -6 7 -10 15 -8 17 1 2 0 3 -2 1 -5 -3 -11 -27 -13
-49 -1 -7 -6 -10 -11 -6 -5 3 -4 -3 1 -14 8 -15 8 -20 -3 -20 -8 0 -11 7 -7
16 3 9 2 13 -2 9 -4 -3 -9 -14 -10 -25 -2 -10 -9 -18 -17 -18 -8 0 -14 -7 -14
-15 -1 -8 -7 -14 -15 -12 -11 3 -11 0 -1 -11 9 -12 9 -16 -1 -20 -11 -4 -10
-6 0 -6 7 -1 10 -6 7 -11 -5 -8 -11 -7 -21 1 -7 6 -11 16 -7 23 5 8 3 8 -8 -1
-8 -6 -17 -12 -21 -12 -5 -1 -9 -1 -10 -2 -2 0 -13 -2 -26 -3 -18 -2 -21 1
-17 18 5 19 5 19 -5 3 -9 -15 -14 -16 -26 -6 -12 10 -16 8 -21 -9 -3 -12 -9
-19 -14 -16 -16 10 -9 -7 12 -29 l21 -22 -11 23 c-7 12 -8 22 -2 22 5 0 16 3
25 6 10 4 16 1 16 -9 0 -9 4 -18 9 -21 5 -4 6 4 3 16 -5 21 -3 20 21 -6 15
-16 24 -33 21 -37 -8 -14 -25 1 -18 14 4 7 3 8 -1 4 -14 -12 -14 -35 -1 -33
23 3 35 17 29 34 -6 15 -5 15 10 3 16 -13 16 -15 1 -32 -10 -11 -14 -19 -10
-19 4 0 2 -9 -4 -21 -9 -16 -14 -18 -26 -9 -7 7 -11 17 -7 23 4 6 1 7 -6 3 -9
-6 -9 -12 3 -25 9 -10 16 -24 16 -31 0 -9 -5 -8 -14 5 -7 10 -21 20 -31 21 -9
1 -14 0 -11 -3 3 -4 -1 -14 -9 -23 -14 -15 -14 -18 0 -30 8 -7 15 -17 15 -23
0 -6 -11 0 -25 13 -22 21 -23 25 -10 40 8 9 15 21 15 26 0 4 -7 -2 -17 -15
-15 -23 -17 -23 -30 -6 -7 11 -13 14 -13 8 0 -5 9 -18 20 -28 20 -19 20 -19
-9 -49 -32 -33 -35 -44 -20 -63 7 -7 6 -14 -1 -18 -5 -3 -10 -12 -10 -18 0 -7
4 -6 10 3 8 13 10 13 10 1 0 -8 11 0 25 19 13 18 22 37 19 41 -3 5 0 9 6 9 7
0 9 -8 5 -22 -5 -16 0 -12 17 12 13 19 29 35 36 35 17 0 31 25 25 44 -4 13 -3
13 5 2 8 -11 11 -9 17 9 6 18 9 20 16 9 7 -11 9 -9 10 6 l0 20 9 -20 9 -20 1
20 1 20 10 -20 c9 -19 9 -18 5 3 -2 12 0 20 4 17 13 -8 7 -82 -6 -82 -6 0 -11
6 -11 13 0 7 5 10 10 7 5 -3 8 0 5 7 -2 7 -11 14 -20 16 -13 2 -16 -5 -13 -27
2 -18 -1 -28 -8 -26 -7 1 -11 -4 -9 -11 1 -8 -2 -11 -9 -6 -9 5 -10 2 -6 -9 3
-9 2 -19 -4 -22 -5 -4 -9 -3 -8 2 3 20 -2 34 -11 28 -5 -3 -6 -13 -3 -23 4
-13 2 -13 -10 3 -19 23 -22 13 -6 -16 5 -11 15 -16 21 -13 7 4 8 2 4 -5 -6 -8
-12 -9 -20 -2 -7 6 -16 8 -20 4 -4 -4 -4 0 -1 8 4 10 0 16 -10 16 -9 0 -14 -6
-11 -13 3 -7 -2 -18 -9 -24 -8 -7 -13 -16 -10 -20 3 -5 0 -12 -6 -16 -7 -4 -9
-3 -6 3 4 6 -1 17 -10 24 -15 12 -16 12 -10 -4 4 -10 3 -16 -2 -13 -10 6 -26
-23 -22 -39 2 -5 -1 -7 -4 -3 -10 10 -47 -11 -40 -22 3 -5 -4 -7 -15 -5 -23 4
-26 -5 -8 -24 11 -11 10 -12 -2 -5 -23 13 -42 14 -37 1 3 -7 11 -11 18 -9 8 2
10 0 6 -4 -4 -4 -15 -9 -23 -10 -9 -1 -13 0 -11 3 3 3 2 16 -3 29 -9 22 -8 24
10 14 12 -7 20 -7 20 -1 0 5 -6 11 -12 14 -7 2 -5 3 4 2 10 -2 18 1 18 6 0 5
-9 9 -20 9 -17 0 -19 3 -11 18 6 10 6 24 1 32 -5 8 -7 17 -4 21 2 4 0 10 -5
14 -6 3 -8 -4 -5 -17 7 -27 7 -38 1 -58 -9 -33 -20 -50 -29 -44 -5 3 -4 11 3
20 6 8 8 14 4 14 -4 0 -1 8 6 17 8 9 9 14 2 10 -6 -4 -14 -1 -16 5 -3 7 -4 2
-4 -12 1 -14 -2 -25 -8 -25 -5 0 -9 4 -7 8 1 5 -2 5 -8 2 -8 -5 -6 -13 5 -25
11 -12 13 -20 6 -25 -6 -3 -11 -1 -11 6 0 7 -3 9 -6 6 -4 -4 -2 -12 4 -19 7
-9 6 -18 -4 -32 -7 -10 -10 -24 -7 -30 4 -6 10 0 15 14 7 24 8 24 4 -3 -2 -15
1 -30 5 -33 5 -3 10 0 10 5 1 6 2 19 4 29 1 9 7 28 13 42 10 24 11 23 8 -10
-1 -19 -8 -46 -15 -58 l-13 -24 -23 22 c-23 22 -26 35 -12 57 4 6 3 14 -2 18
-5 3 -8 14 -6 25 2 12 0 18 -6 14 -6 -3 -8 -9 -5 -12 10 -9 -16 -32 -28 -25
-6 3 -1 -5 11 -18 22 -24 22 -24 3 -49 -21 -27 -27 -21 -10 10 7 13 5 21 -8
31 -14 11 -15 11 -5 0 13 -15 6 -44 -8 -35 -5 3 -6 10 -3 16 5 7 2 8 -5 3 -9
-5 -10 -10 -2 -18 21 -21 11 -30 -11 -11 -23 19 -23 19 -6 -2 16 -18 16 -22 2
-40 -15 -18 -15 -18 -9 3 3 12 1 24 -4 28 -7 4 -8 -1 -4 -11 4 -12 3 -15 -5
-10 -8 5 -10 2 -6 -8 4 -11 0 -14 -15 -11 -15 3 -18 0 -14 -13 6 -15 5 -16
-13 -2 -17 13 -18 13 -7 0 9 -12 8 -22 -4 -48 -8 -17 -20 -29 -25 -26 -5 3 -3
13 6 23 9 10 16 22 16 27 0 4 -7 -2 -16 -14 -13 -20 -18 -21 -32 -10 -15 11
-15 11 -4 -4 8 -10 9 -19 3 -22 -5 -3 -12 0 -15 6 -3 7 -3 1 -1 -14 2 -17 -3
-32 -15 -43 -11 -10 -16 -24 -12 -33 5 -15 4 -15 -11 -3 -17 13 -17 15 0 33
18 20 27 52 12 42 -5 -3 -7 -9 -4 -13 7 -12 -30 -42 -41 -34 -5 5 1 -4 14 -18
35 -40 26 -46 -15 -8 -21 18 -28 22 -15 8 12 -14 19 -29 15 -33 -5 -4 -2 -6 6
-4 7 2 15 -2 18 -8 2 -7 -4 -11 -13 -10 -16 1 -22 -13 -27 -59 -2 -11 -6 -26
-10 -32 -5 -7 -6 -13 -2 -13 3 0 -1 -13 -10 -30 -18 -34 -18 -39 -2 -60 10
-13 10 -13 -5 -1 -17 12 -23 9 -19 -12 1 -5 -7 -19 -18 -33 -15 -19 -20 -21
-25 -9 -3 8 -2 14 2 12 4 -1 7 3 7 8 0 6 -4 9 -8 7 -4 -1 -4 6 1 15 5 10 8 26
7 36 -3 16 31 44 48 39 4 -1 7 1 8 5 0 5 2 17 4 28 3 19 3 19 -9 3 -7 -10 -16
-15 -19 -11 -4 3 -2 11 3 18 5 6 8 23 7 38 -1 14 2 27 8 27 5 0 9 -11 10 -24
0 -13 3 -27 6 -30 3 -3 5 17 3 44 -1 27 2 48 6 45 10 -6 7 22 -3 30 -4 3 -5 2
-2 -2 3 -3 -7 -21 -21 -40 -14 -18 -22 -33 -18 -33 3 0 0 -8 -7 -17 -10 -11
-10 -14 -1 -9 7 4 12 1 12 -9 0 -10 -5 -13 -12 -9 -6 4 -9 3 -5 -2 3 -5 -1
-17 -8 -27 -7 -11 -16 -14 -19 -8 -4 5 -2 12 3 16 5 3 8 14 6 25 -2 11 0 22 6
25 5 4 9 12 9 18 0 7 -5 4 -11 -6 -6 -10 -15 -14 -22 -10 -8 4 -7 1 1 -9 8
-10 9 -19 3 -22 -12 -8 -9 -30 7 -48 6 -8 9 -18 5 -22 -3 -3 -15 6 -25 21 -15
23 -18 24 -16 8 2 -13 -2 -19 -12 -17 -8 2 -12 0 -8 -4 11 -10 -12 -35 -26
-27 -6 3 -8 3 -4 -2 4 -4 3 -14 -4 -22 -6 -8 -7 -13 -2 -11 5 2 9 -1 9 -7 0
-5 -8 -9 -18 -9 -14 1 -15 -2 -6 -12 11 -13 5 -19 -15 -15 -5 1 -4 -4 2 -12 7
-8 8 -18 4 -22 -4 -5 -1 -5 6 -1 7 4 12 1 12 -9 0 -13 -4 -14 -20 -5 -11 6
-17 16 -14 22 5 7 2 8 -6 3 -10 -6 -8 -12 8 -25 12 -10 18 -20 15 -24 -4 -3
-18 4 -32 16 -14 13 -20 16 -14 8 12 -18 9 -45 -8 -66 -9 -11 -15 -12 -28 -2
-12 9 -11 7 2 -8 12 -15 16 -30 11 -48 -3 -14 -10 -23 -15 -20 -5 3 -5 13 1
24 7 13 5 21 -8 31 -15 12 -16 12 -5 -2 7 -9 10 -18 7 -21 -2 -3 -7 -18 -10
-34 -3 -16 -10 -33 -16 -39 -7 -7 -8 -2 -4 15 3 14 3 19 0 12 -3 -6 -10 -10
-15 -7 -5 4 -6 -2 -2 -11 4 -10 2 -15 -3 -11 -6 3 -11 -4 -11 -16 -1 -12 -4
-31 -6 -42 -3 -11 -6 -22 -6 -25 -1 -3 -6 2 -12 10 -9 13 -10 13 -6 -1 3 -9 1
-21 -4 -26 -5 -5 -11 -20 -14 -33 -5 -26 -15 -40 -15 -20 0 9 -5 7 -14 -5 -10
-15 -11 -23 -2 -37 10 -17 11 -17 18 0 6 16 7 16 7 0 1 -10 6 -18 11 -18 7 0
7 6 0 19 -13 25 -13 40 1 21 8 -12 9 -9 4 10 -5 19 -4 22 4 10 8 -11 11 -11
12 -2 1 6 3 17 4 22 1 6 3 16 4 23 1 8 4 8 12 -3 9 -13 10 -12 5 3 -4 12 -2
16 6 11 7 -5 8 -3 3 6 -5 8 -4 11 3 6 7 -4 10 1 7 14 -2 11 0 18 5 15 6 -3 7
2 4 12 -4 13 -3 15 4 4 7 -10 13 -6 23 18 12 26 15 28 21 13 5 -10 6 -2 3 18
-4 28 -3 31 5 15 8 -16 9 -13 5 15 -4 28 -3 31 5 15 8 -16 9 -13 5 15 -4 28
-3 31 5 15 10 -19 10 -19 6 3 -2 12 -1 22 4 22 4 0 10 -11 12 -25 3 -13 2 -22
-2 -20 -14 8 -22 -47 -9 -59 9 -8 10 -6 5 9 -6 16 -5 18 5 7 11 -10 10 -16 -5
-30 -9 -9 -16 -12 -15 -7 4 25 -2 28 -15 5 -14 -27 -10 -52 5 -29 6 10 9 10 9
2 0 -6 -5 -15 -10 -18 -6 -4 -7 -11 -4 -17 4 -7 2 -8 -5 -4 -6 4 -9 11 -6 16
3 4 -2 13 -10 20 -13 11 -15 10 -12 -6 1 -11 6 -24 10 -31 4 -6 3 -15 -3 -18
-6 -4 -9 -3 -8 2 2 4 -1 8 -7 8 -5 0 -10 -6 -11 -12 -1 -7 -12 -24 -23 -39
-11 -14 -18 -31 -14 -38 4 -6 -1 -5 -10 3 -20 16 -23 2 -4 -19 10 -12 9 -12
-6 -1 -19 15 -24 2 -6 -16 9 -9 5 -11 -13 -9 -16 2 -29 -4 -37 -16 -13 -20 -1
-24 17 -6 9 9 12 9 12 0 0 -7 -5 -12 -11 -12 -8 0 -7 -6 2 -17 11 -15 11 -16
-1 -5 -19 17 -35 15 -21 -2 8 -10 9 -16 1 -21 -6 -4 -9 -3 -8 2 2 4 -1 8 -7 8
-5 0 -9 -3 -7 -8 1 -4 -4 -6 -10 -5 -7 2 -12 -3 -10 -9 3 -18 -3 -16 -19 4 -8
9 -9 14 -2 10 7 -5 9 0 5 15 -5 21 -6 21 -12 2 -9 -24 4 -60 21 -56 10 2 10 0
-1 -12 -13 -17 -22 -21 -18 -8 2 4 -1 7 -7 7 -5 0 -9 -4 -7 -8 1 -5 -3 -5 -9
-1 -8 5 -10 2 -6 -9 3 -8 0 -20 -7 -26 -9 -8 -13 -7 -13 4 0 8 5 11 11 8 6 -4
5 0 -1 9 -7 8 -10 17 -7 21 11 11 -24 1 -38 -11 -8 -6 -19 -8 -24 -4 -4 4 -3
0 4 -10 14 -18 6 -27 -20 -23 -13 2 -16 -1 -10 -13 10 -21 9 -29 -9 -69 -12
-27 -17 -30 -34 -21 -11 6 -17 8 -13 4 9 -11 -12 -67 -23 -60 -6 3 -6 11 -1
17 9 13 9 63 0 73 -4 3 -5 -12 -5 -33 2 -26 -2 -37 -11 -35 -6 1 -11 -4 -10
-10 2 -7 -4 -12 -12 -10 -11 3 -11 -1 3 -16 9 -10 14 -22 11 -25 -4 -4 -13 1
-21 11 -13 15 -13 15 -3 -5 6 -13 8 -24 5 -24 -3 -1 -9 -2 -14 -3 -5 0 -13 -5
-18 -9 -4 -5 -3 -7 4 -5 6 1 10 -1 10 -7 -1 -5 -8 -9 -17 -7 -11 2 -11 0 2 -8
10 -6 18 -19 19 -28 0 -16 1 -16 7 0 6 15 9 14 18 -7 8 -15 8 -23 2 -22 -12 2
-17 -52 -6 -59 8 -5 12 9 9 36 -2 13 0 13 8 1 10 -16 2 -40 -22 -59 -11 -10
-14 -4 -13 31 1 26 -3 42 -11 42 -6 0 -15 4 -20 9 -5 5 -2 6 6 1 10 -6 12 -4
6 5 -6 9 -4 11 5 5 10 -6 10 -4 2 10 -5 10 -17 20 -27 21 -9 1 -14 0 -11 -3 3
-4 -2 -16 -11 -27 -13 -15 -10 -14 10 3 15 14 27 21 27 17 0 -14 -37 -56 -43
-49 -4 3 -9 -2 -13 -11 -3 -9 -10 -14 -14 -11 -5 3 -7 -3 -5 -12 1 -10 -3 -25
-11 -33 -13 -15 -14 -19 -14 -42 0 -9 -4 -8 -10 2 -7 12 -9 10 -8 -10 2 -45
-2 -61 -12 -55 -6 4 -7 12 -4 18 4 7 3 8 -2 4 -5 -5 -9 -22 -9 -38 0 -16 -4
-29 -10 -29 -5 0 -9 9 -9 20 1 11 -2 17 -6 15 -7 -4 -6 -34 0 -42 2 -2 4 -7 5
-13 1 -5 4 -13 5 -17 1 -5 1 -16 0 -27 -1 -10 3 -15 9 -12 5 4 8 15 6 26 -2
13 2 20 11 20 10 0 12 5 7 13 -11 18 -13 38 -2 31 5 -3 9 -2 8 3 -1 4 3 19 10
33 11 23 11 23 7 3 -4 -22 4 -30 17 -16 4 3 1 16 -7 28 -12 18 -12 24 0 40 12
17 14 17 14 2 0 -28 15 -19 17 10 0 15 11 35 23 45 12 10 19 18 14 18 -4 0 -3
5 3 11 6 6 9 19 6 28 -3 13 -2 12 7 -2 6 -9 16 -14 22 -11 7 5 8 2 2 -7 -4 -8
-9 -23 -9 -34 0 -11 -8 -34 -18 -52 -11 -20 -13 -34 -7 -38 6 -4 8 -11 4 -16
-3 -5 -10 -7 -15 -3 -6 3 -9 -2 -7 -11 2 -11 -4 -19 -14 -20 -16 -3 -16 -2 0
22 9 15 17 31 18 37 1 6 6 20 10 30 5 13 4 17 -4 12 -7 -4 -9 1 -7 15 6 28
-10 12 -20 -20 -5 -18 -4 -22 5 -16 9 6 11 4 4 -6 -4 -8 -9 -20 -10 -27 -2 -8
-10 -22 -18 -31 -14 -15 -14 -20 -3 -29 8 -7 16 -9 20 -6 3 3 4 -1 3 -10 -1
-8 -6 -19 -10 -23 -4 -4 -6 -3 -4 3 3 11 -1 14 -17 14 -3 0 -1 -10 5 -22 10
-21 10 -22 -4 -5 -8 11 -13 28 -11 39 3 12 -1 18 -8 15 -14 -4 -17 -27 -5 -43
8 -11 4 -46 -7 -65 -5 -7 -11 -6 -21 2 -12 10 -14 8 -10 -12 3 -13 5 -26 5
-29 1 -3 6 2 11 10 5 8 10 10 10 4 0 -21 -14 -24 -32 -7 -10 9 -18 11 -18 6 0
-6 7 -16 15 -23 19 -16 19 -30 -1 -55 -11 -13 -14 -15 -12 -5 2 9 -1 17 -7 18
-13 3 -14 -19 -2 -36 7 -9 3 -20 -12 -36 -11 -12 -18 -26 -14 -30 5 -4 8 -13
8 -19 1 -7 7 -11 15 -9 8 2 2 -10 -14 -27 -17 -17 -31 -37 -33 -44 -1 -6 -4
-20 -6 -30 -2 -9 -9 -23 -15 -29 -14 -14 -16 -32 -3 -24 12 8 8 -14 -7 -39 -6
-11 -12 -15 -12 -8 0 6 5 15 10 18 8 5 7 11 -1 21 -9 11 -8 19 6 34 10 11 15
20 11 20 -4 0 -2 9 4 19 6 12 6 22 1 25 -5 4 -12 -7 -16 -24 -4 -16 -11 -33
-17 -37 -8 -4 -9 0 -3 13 4 10 8 29 8 41 1 12 5 19 9 17 4 -3 8 0 8 5 0 6 -7
11 -16 11 -11 0 -14 -5 -10 -16 4 -11 2 -15 -8 -11 -9 4 -13 0 -11 -11 2 -9 4
-18 5 -19 8 -10 1 -48 -7 -46 -6 1 -9 -7 -6 -20 3 -16 2 -18 -5 -9 -7 11 -11
10 -17 -5 -14 -30 -11 -48 8 -47 9 1 17 -5 17 -13 0 -8 5 -11 10 -8 7 4 7 11
2 18 -12 15 -12 48 0 41 5 -3 7 -13 6 -22 -2 -9 2 -17 9 -17 6 0 15 -4 20 -8
4 -5 1 -7 -7 -5 -13 3 -15 -7 -11 -43 0 -5 7 -7 14 -3 8 5 8 2 -2 -9 -7 -9
-10 -17 -6 -17 4 0 3 -6 -4 -13 -7 -10 -7 -17 0 -24 8 -8 7 -13 -2 -18 -7 -5
-10 -4 -5 3 3 6 2 13 -4 17 -6 4 -7 12 -3 18 17 27 1 70 -23 60 -8 -3 -13 -8
-10 -11 3 -2 1 -13 -5 -23 -11 -22 -38 -15 -34 9 6 28 6 28 15 7 l9 -20 1 20
c2 11 2 23 1 27 0 4 7 5 17 1 14 -5 15 -3 5 7 -10 11 -16 11 -31 -3 -15 -13
-21 -14 -32 -4 -10 10 -11 9 -4 -3 5 -8 9 -23 10 -32 1 -10 2 -22 3 -27 0 -6
9 -8 20 -6 13 2 18 -2 17 -16 0 -10 3 -19 8 -19 5 0 10 16 11 35 0 19 4 37 7
40 8 8 3 -69 -6 -83 -3 -6 -2 -14 4 -17 8 -5 8 -11 0 -20 -8 -10 -8 -15 0 -20
8 -5 6 -13 -6 -27 -15 -15 -16 -23 -7 -38 10 -14 9 -21 -2 -30 -8 -7 -13 -16
-10 -20 3 -5 1 -11 -4 -15 -10 -6 -7 -37 5 -57 4 -6 3 -8 -3 -5 -6 4 -10 -4
-10 -20 l0 -26 17 24 c10 13 16 28 12 34 -9 13 -14 50 -6 43 3 -3 6 -12 8 -20
1 -7 5 -18 8 -24 4 -6 -5 -26 -20 -45 -25 -30 -28 -40 -23 -66 1 -5 6 -1 12 7
9 13 9 13 7 0 -2 -9 1 -15 7 -15 5 0 9 7 7 15 -2 13 -2 13 7 0 7 -9 6 -19 -1
-27 -9 -11 -14 -10 -29 3 -23 21 -25 8 -4 -16 9 -10 17 -26 20 -38 3 -19 1
-20 -34 -13 -2 1 2 8 9 16 7 9 11 18 8 20 -3 3 -11 -2 -18 -11 -15 -17 -1 -51
19 -47 6 2 8 -4 4 -14 -5 -12 -3 -14 7 -8 8 5 11 4 7 -3 -4 -5 -14 -9 -22 -8
-19 3 -32 16 -16 16 7 0 9 5 5 11 -4 8 -9 7 -16 -2 -7 -11 -8 -10 -4 4 3 10 2
16 -4 12 -6 -4 -7 2 -4 12 5 15 4 16 -5 3 -11 -16 -12 -13 -15 32 -1 16 2 24
9 20 5 -3 4 2 -4 12 -8 9 -16 27 -17 39 -1 12 -3 27 -4 32 -1 6 -1 17 0 25 2
8 6 -1 10 -20 l7 -35 2 33 c0 17 5 32 10 32 5 0 8 11 5 25 -2 14 0 25 6 25 8
0 7 6 0 20 -6 11 -7 20 -2 20 6 0 12 9 15 20 3 11 1 20 -4 20 -5 0 -9 -8 -9
-17 0 -16 -2 -16 -11 -3 -9 13 -10 13 -6 -2 7 -19 -15 -42 -29 -30 -4 4 -3 0
4 -9 9 -12 9 -19 -1 -29 -10 -12 -9 -12 4 -2 14 11 16 9 16 -13 0 -19 -3 -23
-12 -15 -13 11 -13 11 -18 -65 -1 -27 -10 -65 -19 -83 -9 -18 -12 -29 -6 -26
6 4 8 -2 3 -17 -3 -13 -3 -19 2 -14 12 15 39 12 35 -5 -3 -11 0 -11 13 0 14
12 15 10 11 -13 -3 -17 0 -26 7 -24 7 1 11 -8 11 -21 -1 -12 1 -20 5 -17 3 4
6 11 6 16 0 5 5 8 10 7 6 -2 9 -7 7 -11 -1 -5 2 -6 8 -2 13 8 13 -1 0 -24 -7
-14 -5 -23 8 -34 9 -9 22 -16 27 -17 6 0 9 -9 9 -20 -1 -11 2 -18 6 -15 9 6 7
46 -3 63 -5 7 -13 10 -18 7 -5 -3 -6 2 -3 12 5 15 4 16 -6 3 -10 -13 -11 -12
-6 4 4 10 1 25 -5 32 -6 8 -8 14 -3 15 5 0 17 2 27 4 9 2 15 -1 11 -6 -3 -5
-10 -7 -15 -4 -12 8 -11 1 2 -29 7 -14 16 -23 21 -20 5 3 4 11 -2 19 -7 9 -6
16 7 26 15 11 16 11 6 -1 -10 -11 -9 -17 4 -33 10 -10 12 -17 6 -15 -6 2 -11
-1 -11 -7 0 -5 4 -9 8 -8 11 3 7 -47 -5 -67 -7 -13 -6 -13 7 -2 14 11 16 8 13
-33 -1 -25 0 -43 3 -40 7 7 33 -16 27 -25 -3 -4 2 -13 9 -19 11 -9 14 -9 12 1
-1 7 -5 19 -9 25 -6 9 -3 11 7 7 9 -3 16 -13 16 -21 0 -8 4 -12 9 -9 5 4 8 -2
6 -11 -1 -10 2 -23 7 -30 6 -7 5 -14 -3 -19 -7 -4 -9 -3 -5 4 3 6 2 13 -4 17
-6 4 -7 12 -3 18 3 7 -3 3 -15 -7 -24 -21 -31 -36 -8 -17 17 14 24 5 21 -31
-1 -19 2 -25 14 -23 11 2 17 -4 17 -15 0 -14 -3 -16 -13 -8 -9 7 -13 7 -13 0
0 -6 4 -13 9 -16 11 -7 9 -32 -4 -43 -4 -4 -6 1 -3 13 3 12 0 21 -7 21 -13 0
-8 -34 6 -43 5 -3 5 -13 1 -22 -11 -23 -9 -47 4 -45 13 2 12 -43 0 -54 -5 -5
-6 -2 -1 6 5 9 4 12 -3 7 -7 -4 -10 1 -7 14 3 13 0 18 -7 14 -6 -4 -8 -3 -4 4
3 6 2 13 -4 17 -6 4 -4 16 6 33 15 26 15 26 -2 4 -16 -22 -18 -22 -38 -5 -14
13 -17 13 -9 2 10 -12 10 -18 0 -29 -10 -12 -9 -12 4 -2 20 15 33 4 17 -15 -9
-11 -8 -13 2 -11 9 2 14 -6 15 -22 0 -15 6 -25 15 -25 8 0 15 -7 15 -15 0 -8
4 -16 8 -17 5 -1 15 -10 23 -20 14 -17 14 -16 4 5 -6 12 -15 20 -21 17 -5 -4
-9 -1 -9 4 0 14 11 13 30 -2 17 -13 19 -25 6 -45 -5 -8 -4 -18 3 -25 16 -16
14 -32 -2 -18 -11 8 -13 4 -13 -22 1 -23 -3 -31 -13 -29 -12 3 -12 0 -1 -12 7
-9 9 -16 4 -16 -4 0 -3 -5 3 -11 6 -6 9 -18 6 -26 -5 -12 -9 -10 -20 8 l-14
24 7 -25 c6 -22 5 -23 -9 -11 -9 7 -15 17 -12 20 2 4 -2 8 -10 8 -8 0 -11 -5
-7 -11 12 -19 10 -35 -4 -47 -13 -10 -14 -8 -10 14 2 15 1 29 -3 32 -5 2 -8
-3 -8 -13 1 -29 -15 -72 -24 -66 -5 3 -4 14 2 25 6 12 8 23 6 26 -4 4 -19 -28
-22 -47 -2 -17 -23 -36 -40 -36 -14 1 -19 -5 -17 -19 3 -16 2 -17 -12 -6 -13
11 -14 17 -4 30 11 14 11 14 -3 4 -10 -8 -19 -9 -27 -3 -7 6 -10 7 -7 4 3 -4
0 -13 -6 -20 -7 -8 -7 -14 1 -19 6 -4 9 -3 8 2 -2 4 2 9 7 11 12 3 14 -19 3
-35 -5 -6 -5 -14 2 -18 6 -3 7 -11 4 -17 -5 -7 -2 -8 6 -3 10 6 12 4 6 -11 -6
-15 -5 -16 5 -7 10 10 9 16 -4 31 -15 16 -15 21 -4 30 14 12 27 7 27 -10 0 -5
-6 -6 -13 -2 -8 5 -8 3 2 -9 7 -9 17 -14 22 -11 5 3 9 0 9 -5 0 -6 -6 -11 -12
-11 -9 0 -8 -4 2 -10 14 -9 7 -15 -14 -11 -5 1 -5 -4 1 -11 5 -7 9 -25 8 -40
-1 -15 1 -25 5 -23 4 3 6 18 5 35 -2 27 13 56 16 31 5 -38 5 -57 0 -66 -11
-20 -9 -34 7 -47 15 -11 15 -11 6 2 -13 19 -12 41 1 38 6 -2 9 -7 7 -12 -1 -4
3 -14 9 -22 6 -8 8 -14 4 -14 -4 0 -3 -6 2 -12 6 -7 9 -21 8 -30 -3 -18 27
-51 51 -54 8 -1 12 2 9 6 -3 5 0 12 6 15 7 5 9 -1 7 -16 -3 -26 -24 -32 -48
-15 -13 9 -13 8 -3 -5 7 -9 10 -19 7 -22 -4 -4 3 -5 15 -2 14 3 21 -1 22 -13
0 -14 2 -14 8 2 7 19 8 19 13 -2 4 -12 2 -22 -4 -22 -5 0 -2 -7 6 -16 17 -17
12 -39 -6 -28 -7 4 -8 2 -4 -5 6 -8 12 -9 20 -2 17 14 29 1 15 -16 -6 -7 -8
-13 -4 -13 4 0 1 -8 -6 -17 -13 -16 -12 -17 3 -4 10 7 16 17 13 21 -3 4 2 13
10 20 13 11 15 10 12 -6 -1 -11 -7 -26 -12 -34 -8 -13 -7 -13 9 0 27 21 43 20
51 -4 11 -33 11 -50 0 -66 -5 -8 2 -5 16 8 33 29 49 28 20 -1 -19 -21 -20 -25
-6 -37 8 -7 15 -9 15 -5 0 4 7 2 15 -5 8 -7 12 -17 8 -23 -3 -6 -1 -7 6 -3 8
5 10 0 7 -18 -3 -14 -1 -28 3 -30 3 -3 7 13 7 34 0 21 -3 37 -7 34 -8 -5 -22
14 -25 33 -1 7 2 15 7 19 8 5 13 -10 10 -29 -1 -5 3 -6 8 -2 12 7 29 -24 26
-47 -2 -10 2 -16 8 -15 6 1 11 -3 12 -10 0 -6 3 -15 7 -19 4 -4 3 -13 -3 -20
-7 -8 -7 -14 1 -19 6 -4 9 -3 8 2 -2 4 2 9 7 11 6 1 10 -2 10 -7 0 -5 3 -12 7
-15 5 -3 6 -3 3 1 -3 3 0 12 7 20 7 9 8 13 1 11 -6 -2 -11 2 -11 7 0 6 4 9 9
7 5 -1 8 1 8 5 -3 20 2 27 10 14 6 -8 6 -24 0 -38 -4 -12 -6 -30 -2 -40 5 -12
3 -14 -7 -8 -9 5 -11 4 -6 -4 11 -17 28 -2 21 18 -4 13 1 17 20 17 14 0 24 -5
21 -10 -2 -6 -8 -10 -14 -9 -8 2 -9 -25 -2 -34 2 -2 3 -7 4 -12 3 -24 13 -18
11 6 -1 16 2 33 7 40 6 7 8 16 5 20 -2 4 -1 17 4 28 7 18 8 18 9 -5 3 -31 3
-31 -5 -55 -6 -20 -6 -20 6 0 16 25 19 66 6 83 -8 10 -6 12 4 10 8 -2 13 3 11
10 -1 8 2 11 8 7 8 -5 8 -11 0 -20 -7 -8 -7 -15 -1 -19 5 -3 12 0 14 6 3 7 5
2 5 -12 -1 -41 1 -52 11 -46 5 3 7 19 6 36 -1 17 0 28 4 25 3 -4 6 -11 6 -16
0 -5 5 -9 10 -9 6 0 10 4 10 9 0 5 3 12 7 16 15 15 1 -25 -15 -43 -17 -18 -17
-20 0 -33 15 -12 16 -12 10 3 -3 9 1 22 9 28 8 7 15 10 15 6 1 -3 2 -12 3 -18
1 -7 7 -12 14 -10 7 1 11 -1 11 -5 -3 -20 2 -33 13 -31 13 3 19 -50 6 -58 -4
-3 -8 0 -8 7 0 7 -3 10 -6 6 -3 -3 -1 -14 5 -24 8 -14 10 -14 11 -3 0 13 1 13
10 0 6 -9 5 -17 -3 -22 -9 -6 -9 -8 1 -8 7 0 10 -5 7 -10 -4 -6 -10 -8 -15 -5
-5 3 -12 1 -15 -5 -17 -27 -38 26 -25 60 1 3 2 9 1 13 -1 5 8 11 19 14 11 3
17 9 14 14 -3 5 -10 6 -16 3 -6 -4 -8 -2 -5 3 4 6 -2 22 -13 34 -11 13 -19 19
-20 12 0 -6 5 -15 10 -18 6 -3 10 -14 9 -23 0 -14 -2 -13 -9 3 -7 16 -9 17 -9
3 -1 -9 3 -19 8 -22 12 -8 7 -42 -5 -38 -5 2 -8 11 -7 20 1 10 0 11 -3 4 -3
-6 -10 -9 -15 -6 -6 3 -6 11 2 20 14 17 4 48 -12 38 -8 -5 -9 -3 -4 6 5 8 4
11 -3 6 -5 -3 -19 6 -30 20 -16 22 -19 24 -17 8 0 -11 4 -25 8 -31 4 -6 3 -14
-3 -18 -5 -3 -10 -1 -10 6 0 7 -3 9 -7 6 -3 -4 3 -17 14 -30 11 -12 19 -30 18
-40 -2 -11 0 -16 3 -12 4 4 7 15 7 26 0 10 5 19 10 19 6 0 9 -9 9 -20 -1 -10
4 -18 10 -17 6 1 10 -4 8 -11 -1 -6 3 -11 9 -10 6 2 14 -3 17 -11 3 -9 0 -11
-9 -6 -8 5 -3 -4 10 -18 17 -18 28 -24 36 -17 7 6 16 5 23 -2 16 -16 42 -19
39 -5 -2 14 25 16 35 3 9 -14 -2 -37 -16 -29 -6 4 -5 -1 3 -10 14 -17 26 -24
17 -9 -7 12 10 35 29 38 11 2 15 -3 11 -11 -3 -8 -1 -17 5 -20 5 -4 6 -11 3
-17 -4 -6 -2 -8 3 -5 6 4 14 0 17 -9 5 -12 10 -14 20 -5 7 6 17 7 22 3 5 -4 1
2 -8 13 -12 14 -14 25 -8 35 8 13 10 13 10 -1 0 -9 7 -22 15 -29 8 -7 12 -17
8 -24 -4 -6 -8 -17 -10 -25 -1 -10 1 -11 10 -2 7 7 12 16 12 22 0 5 5 8 10 7
6 -2 9 -7 7 -11 -1 -5 2 -6 8 -2 6 3 7 12 3 18 -11 18 -12 36 -2 43 5 3 9 2
10 -3 0 -4 2 -19 5 -32 4 -25 -12 -54 -26 -46 -5 3 -11 1 -14 -4 -9 -13 19 -7
38 8 9 8 15 23 14 35 -2 12 2 20 7 19 6 -1 12 8 12 20 2 21 1 21 -12 4 -8 -12
-14 -14 -17 -6 -2 6 -16 13 -31 15 -24 2 -25 1 -12 -12 16 -16 11 -39 -6 -28
-5 3 -6 10 -3 16 4 7 2 8 -4 4 -11 -7 -17 13 -13 38 1 5 -5 4 -13 -4 -11 -8
-16 -9 -16 -1 0 6 5 11 11 11 6 0 7 5 2 13 -4 6 -8 17 -10 22 -1 6 -4 21 -7
34 -3 13 -2 20 2 17 7 -7 8 -11 11 -37 0 -5 5 -8 10 -5 11 7 9 25 -4 46 -7 13
-6 13 7 2 16 -13 18 -27 7 -47 -9 -18 -4 -40 10 -37 7 1 10 -2 7 -7 -3 -5 1
-12 10 -15 24 -9 28 -7 15 7 -8 10 -7 14 4 14 8 0 11 -5 8 -10 -4 -6 0 -8 10
-4 12 4 14 2 10 -10 -5 -12 -3 -14 8 -7 26 16 40 14 29 -6 -7 -13 -6 -20 6
-24 25 -9 27 -7 13 11 -12 15 -12 16 1 8 8 -6 20 -10 25 -10 6 0 8 -9 7 -20
-3 -16 -2 -17 12 -6 15 13 15 16 1 31 -13 14 -13 17 -1 17 8 0 14 -3 13 -6 -1
-3 3 -7 8 -8 6 -1 10 6 9 16 -1 10 5 18 12 18 10 0 11 -4 3 -14 -6 -7 -8 -13
-4 -13 5 0 1 -8 -8 -18 -10 -10 -14 -22 -10 -25 9 -10 25 -9 19 1 -2 4 5 19
15 32 18 22 19 22 10 3 -8 -15 -8 -24 -1 -28 6 -4 8 -11 5 -16 -4 -5 -2 -9 4
-9 15 0 23 18 11 25 -5 3 -10 11 -10 18 0 6 7 2 16 -9 12 -15 15 -16 10 -2 -2
9 3 22 12 30 15 11 15 11 5 -3 -7 -9 -10 -19 -7 -22 3 -3 2 -12 -2 -19 -9 -13
-10 -18 -13 -40 -1 -9 -4 -9 -10 1 -8 12 -12 12 -25 2 -11 -9 -16 -10 -16 -2
0 6 5 11 11 11 5 0 7 5 3 11 -5 8 -9 8 -14 -1 -5 -8 -10 -9 -14 -2 -4 6 -15 9
-26 7 -11 -2 -24 4 -30 13 -7 13 -9 14 -10 2 0 -10 -3 -11 -11 -3 -15 15 -39
5 -39 -16 0 -14 2 -14 10 -1 7 10 10 11 11 3 5 -40 17 -57 33 -44 7 6 17 7 21
3 5 -4 6 -2 2 3 -3 6 -2 17 4 25 6 11 9 11 10 3 1 -7 3 -17 4 -23 1 -5 3 -13
4 -16 0 -4 7 -1 15 5 11 9 15 9 19 -1 4 -10 6 -10 6 1 1 10 4 11 15 2 10 -8
16 -9 21 -1 3 6 12 7 18 3 17 -11 38 -13 32 -3 -3 5 -1 11 5 15 6 4 8 11 4 16
-3 5 -10 7 -15 3 -5 -3 -7 -9 -4 -14 3 -5 0 -12 -6 -16 -8 -5 -9 -3 -4 6 6 9
4 11 -5 5 -10 -6 -11 -4 -4 6 9 14 10 19 13 42 1 8 4 7 11 -3 9 -13 10 -13 11
0 1 8 1 19 0 23 -1 5 3 6 9 2 7 -4 7 -12 0 -25 -7 -13 -7 -21 0 -25 10 -6 14
2 10 20 -1 6 2 7 6 3 4 -4 13 -3 20 3 8 7 14 6 20 -2 4 -7 3 -9 -3 -6 -17 11
-42 -25 -33 -48 8 -19 10 -15 14 18 2 22 41 14 42 -9 1 -11 -5 -21 -12 -21
-10 0 -11 4 -2 14 6 7 9 16 6 18 -8 9 -30 -23 -24 -34 4 -5 15 -8 26 -6 11 2
22 -1 25 -6 4 -5 12 -6 18 -2 7 4 20 8 30 9 9 1 18 2 20 4 1 1 10 3 20 5 11 2
15 -1 10 -8 -4 -7 -1 -7 9 1 13 10 18 10 24 1 5 -8 3 -9 -6 -4 -9 5 -11 4 -6
-4 11 -17 25 -3 21 21 -3 11 -1 17 3 14 4 -4 7 -13 7 -19 1 -7 6 -11 12 -10
18 4 23 -24 7 -37 -8 -7 -14 -20 -14 -29 0 -9 -3 -12 -8 -6 -6 9 -28 11 -75 7
-15 -2 -16 -5 -6 -24 6 -13 8 -20 4 -16 -4 4 -21 0 -38 -8 -37 -20 -113 -74
-102 -74 4 0 2 -7 -5 -15 -14 -17 -35 -21 -24 -4 4 8 0 8 -15 0 -11 -7 -21
-14 -21 -17 0 -3 5 -2 10 1 6 3 10 4 10 1 0 -10 -81 -57 -100 -59 -10 -1 -16
-5 -14 -9 3 -4 1 -8 -5 -8 -5 0 -13 5 -16 10 -10 17 -24 11 -20 -8 2 -13 -3
-17 -24 -16 -34 2 -44 -5 -32 -20 8 -9 4 -19 -14 -34 -14 -12 -25 -17 -25 -12
0 17 -18 11 -24 -8 -3 -10 -21 -26 -38 -37 -26 -15 -30 -15 -20 -3 8 11 9 18
3 23 -6 3 -13 -6 -17 -20 -6 -23 -11 -27 -30 -24 -4 0 -11 -5 -15 -13 -6 -9
-9 -6 -9 12 -1 22 -2 23 -13 9 -7 -9 -16 -16 -20 -17 -19 -2 -65 -27 -61 -33
2 -4 -2 -6 -9 -5 -6 0 -80 -34 -164 -77 -83 -42 -159 -77 -168 -77 -18 0 -71
-25 -165 -77 -36 -19 -81 -37 -100 -40 -20 -2 -43 -13 -53 -26 -12 -14 -20
-18 -23 -10 -6 14 -34 6 -34 -9 0 -20 -35 -37 -74 -38 -33 0 -38 -3 -33 -20 3
-11 2 -18 -2 -15 -5 2 -17 -2 -27 -9 -15 -11 -22 -12 -33 -3 -12 10 -13 9 -6
-3 6 -8 10 -18 10 -22 0 -15 15 -20 15 -5 0 9 4 18 9 21 5 4 7 -4 5 -16 -2
-13 -2 -18 2 -11 3 7 11 10 19 7 8 -3 19 3 26 14 10 16 20 19 50 15 28 -4 41
-1 58 16 12 12 34 21 50 21 18 0 34 8 43 22 9 14 27 23 47 24 20 2 45 13 60
28 15 14 35 27 46 29 11 1 26 6 33 10 6 5 12 5 12 0 0 -4 4 -3 8 3 4 5 30 18
57 28 28 10 57 24 65 31 29 22 195 114 272 149 118 55 434 230 598 333 47 29
91 53 98 53 6 0 9 7 5 15 -3 9 -2 15 3 14 5 -1 18 1 29 5 11 4 33 13 48 18 16
6 36 22 44 35 9 14 22 22 30 19 8 -3 12 -2 9 2 -8 13 53 31 109 33 67 2 77 1
71 -10 -3 -5 1 -14 9 -21 8 -7 13 -16 10 -20 -3 -4 2 -13 10 -20 8 -7 12 -17
8 -23 -4 -6 -1 -7 6 -3 9 6 9 12 -2 24 -8 10 -13 25 -12 34 2 10 0 16 -5 15
-4 -1 -7 2 -6 7 2 13 59 14 68 1 5 -6 8 -5 8 3 0 7 11 0 24 -15 21 -25 23 -30
10 -44 -12 -14 -11 -18 8 -35 23 -18 23 -18 6 1 -17 18 -17 20 8 46 17 17 22
29 15 34 -7 3 -10 3 -9 -2 2 -4 -1 -8 -7 -8 -5 0 -9 4 -7 8 1 5 -2 6 -7 3 -5
-4 -12 -2 -16 4 -4 6 6 10 22 11 15 0 38 2 51 3 13 2 25 -1 28 -5 2 -5 11 -6
19 -2 8 3 15 0 15 -7 0 -6 -4 -9 -8 -6 -5 3 -9 -2 -9 -11 0 -14 3 -13 16 3 14
19 16 19 50 -20 20 -21 36 -42 36 -47 0 -4 3 -10 7 -14 15 -15 1 25 -15 43 -9
10 -14 22 -10 27 5 4 3 5 -4 1 -16 -9 -24 7 -12 24 7 12 9 12 9 1 0 -9 4 -10
13 -4 6 5 25 8 41 7 16 -2 37 1 46 6 21 11 49 -16 45 -43 -2 -9 0 -15 5 -12 9
6 8 24 -3 43 -5 7 -3 12 3 12 6 0 8 5 4 12 -4 7 -3 8 5 4 6 -4 9 -11 7 -15 -3
-4 2 -8 10 -8 9 0 13 6 9 16 -3 9 7 0 24 -19 l29 -35 -26 -30 -27 -30 32 29
c18 16 30 33 27 37 -2 4 0 10 6 14 6 4 8 11 5 16 -4 5 -1 9 4 9 6 0 10 3 9 8
-2 4 0 8 5 10 16 5 19 1 7 -13 -7 -8 -9 -15 -5 -15 4 0 2 -7 -5 -15 -7 -8 -9
-15 -4 -15 4 0 -3 -12 -17 -27 l-24 -28 27 24 c16 14 26 27 23 29 -3 3 1 12 9
21 8 9 16 25 19 36 4 18 5 18 6 -2 0 -13 5 -23 10 -23 12 0 6 -37 -11 -59 -11
-15 -11 -15 6 0 9 9 18 22 19 30 4 25 17 38 32 33 8 -4 12 -10 9 -15 -3 -5
-11 -6 -17 -3 -7 4 -9 4 -5 -1 4 -4 3 -14 -3 -21 -7 -9 -6 -14 3 -20 7 -4 10
-3 5 1 -11 12 43 65 59 58 8 -3 11 -10 7 -16 -3 -5 -1 -7 4 -4 6 4 16 0 23 -8
12 -14 15 -14 34 3 12 11 29 18 40 17 12 -2 20 4 24 18 5 20 6 20 13 1 5 -14
7 -10 6 14 -2 27 -4 30 -13 17 -9 -13 -13 -13 -18 -3 -3 7 -3 0 0 -17 3 -24 3
-26 -5 -10 l-10 20 -1 -20 -1 -20 -9 20 -9 20 -1 -20 -1 -20 -9 20 -9 20 -1
-20 -1 -20 -8 20 -8 20 -5 -20 c-4 -14 -6 -15 -7 -4 -1 20 -28 33 -36 19 -4
-6 1 -10 9 -10 9 0 16 -5 16 -10 0 -7 -6 -7 -20 0 -11 6 -20 7 -20 3 0 -4 -5
-2 -12 5 -14 14 -32 16 -23 3 3 -6 -4 -8 -15 -6 -14 3 -18 0 -14 -8 4 -7 3 -8
-1 -4 -16 14 -13 35 4 32 9 -1 24 2 34 7 9 5 16 5 15 1 -2 -4 1 -8 7 -8 5 0 9
7 7 15 -3 13 -2 13 7 0 10 -14 15 -7 12 13 -1 5 3 6 8 3 5 -4 13 -1 17 5 5 8
13 4 26 -12 17 -21 19 -21 14 -4 -5 17 -3 16 14 -5 18 -22 20 -23 18 -5 -2 12
2 19 10 17 7 -1 15 4 18 13 5 12 8 12 20 0 8 -7 12 -20 9 -27 -3 -7 1 -22 10
-33 10 -13 13 -15 10 -4 -5 12 0 16 17 15 13 -1 29 -5 36 -10 7 -4 11 -4 10 1
-2 4 2 8 7 8 6 0 8 -4 7 -10 -2 -5 0 -6 4 -2 5 4 9 20 11 35 2 23 1 24 -7 7
-8 -19 -9 -18 -10 5 l-2 25 -8 -25 -8 -25 -2 25 -2 25 -9 -25 -8 -25 2 25 c1
14 -3 32 -8 40 -8 13 -7 13 10 0 20 -16 22 -16 49 8 10 9 21 16 25 15 3 -2 6
1 6 6 0 5 3 13 7 17 4 3 6 -3 3 -15 -2 -13 1 -21 10 -21 9 0 12 8 10 20 -2 12
0 18 6 14 6 -3 8 -9 5 -12 -3 -3 0 -12 7 -20 10 -13 9 -14 -2 -7 -9 5 -12 4
-8 -2 9 -14 -25 -11 -36 2 -5 6 -6 2 -3 -8 4 -12 2 -16 -6 -11 -7 5 -8 3 -3
-6 6 -9 4 -11 -4 -5 -10 6 -11 3 -2 -12 6 -11 7 -24 3 -28 -4 -5 -2 -5 5 -1 7
4 10 13 7 21 -6 15 12 15 35 1 9 -6 12 -5 8 1 -4 6 1 19 9 29 13 16 15 16 10
2 -3 -10 -1 -20 5 -23 5 -4 9 -3 8 2 -3 19 2 34 10 29 5 -3 17 6 26 20 9 15
12 23 6 20 -6 -4 -11 -2 -11 3 0 6 8 11 18 11 20 0 48 26 54 50 2 8 13 23 26
33 20 17 53 69 52 82 0 3 11 18 25 33 32 33 64 93 58 109 -2 6 5 17 16 23 12
6 21 15 21 21 0 5 16 32 35 60 19 28 35 58 35 66 0 27 33 87 62 115 15 15 28
37 28 49 0 12 12 32 26 46 14 13 25 33 24 46 -5 51 1 78 20 97 11 11 20 26 20
34 0 7 11 29 23 48 20 29 23 44 20 94 -4 52 -34 139 -53 154 -11 8 -39 71 -30
65 5 -3 11 -1 15 5 9 14 -11 13 -36 -2 -17 -11 -22 -10 -35 6 -8 11 -14 15
-14 8 0 -8 -16 -10 -50 -8 -36 3 -55 0 -72 -13 -13 -10 -34 -24 -47 -31 -21
-11 -23 -10 -18 4 5 12 1 16 -16 16 -24 0 -62 -20 -39 -20 7 0 11 -4 8 -9 -4
-5 -3 -11 1 -14 5 -2 3 -3 -3 -1 -6 1 -26 -13 -43 -32 -18 -19 -36 -34 -40
-34 -5 0 -40 -31 -80 -70 -39 -38 -77 -67 -84 -64 -7 2 -24 -7 -37 -21 -24
-25 -16 -35 11 -12 7 6 -4 -7 -25 -30 -22 -23 -43 -40 -48 -37 -4 3 -11 -2
-14 -10 -8 -21 -28 -20 -45 1 -10 12 -11 15 -1 9 8 -5 26 2 46 18 19 14 37 22
41 18 5 -4 5 -2 2 4 -8 13 164 184 185 184 8 0 23 9 33 20 18 20 18 21 -1 14
-10 -4 -25 -12 -33 -18 -11 -8 -13 -8 -7 2 4 7 32 24 62 38 50 23 76 44 37 30
-10 -4 -4 4 12 18 34 28 156 72 228 82 26 3 50 10 53 15 10 16 50 9 69 -11 10
-11 29 -20 42 -20 35 0 75 -47 62 -71 -6 -12 -6 -19 0 -19 5 0 17 -7 26 -16
13 -14 14 -19 3 -25 -10 -7 -9 -9 5 -9 18 0 25 -44 8 -55 -10 -6 -7 -57 4 -75
4 -6 -7 -35 -24 -65 -17 -30 -31 -60 -31 -65 0 -6 -21 -55 -46 -108 -26 -53
-53 -114 -60 -135 -8 -22 -25 -52 -38 -68 -13 -15 -27 -48 -31 -71 -12 -81
-28 -113 -86 -176 -31 -34 -60 -75 -64 -90 -4 -15 -26 -49 -49 -77 -66 -78
-72 -93 -46 -119 12 -11 20 -16 18 -11 -2 6 2 10 7 10 6 0 9 -4 7 -8 -1 -5 2
-6 8 -2 7 4 3 16 -10 32 -22 28 -15 54 21 73 11 6 17 16 13 23 -4 7 -4 9 1 5
4 -4 13 0 20 9 11 14 14 12 29 -17 9 -18 14 -35 11 -38 -2 -3 -8 3 -11 12 -5
14 -9 15 -16 4 -5 -8 -6 -2 -2 17 6 29 6 29 -9 10 -15 -20 -8 -40 13 -40 6 0
10 -3 10 -7 0 -5 -2 -7 -3 -5 -2 1 -12 -5 -22 -13 -16 -14 -17 -13 -11 7 8 25
-4 36 -24 22 -12 -7 -11 -9 5 -9 16 0 17 -2 5 -10 -9 -6 -17 -5 -23 3 -6 8 -7
6 -3 -6 4 -13 2 -16 -7 -11 -6 4 -1 -5 12 -19 24 -26 37 -36 27 -18 -6 9 28
44 36 36 3 -3 13 4 22 14 14 16 15 23 6 40 -17 32 -20 78 -6 78 7 0 13 -6 13
-13 0 -7 -4 -11 -9 -8 -4 3 -8 0 -8 -5 0 -15 27 -14 32 1 3 7 7 5 11 -6 5 -11
3 -15 -5 -10 -7 4 -8 3 -4 -4 5 -8 2 -10 -8 -6 -20 8 -21 -10 -1 -26 14 -11
14 -16 0 -39 l-16 -26 21 24 c14 16 17 27 10 36 -5 6 -7 15 -3 18 3 4 12 -1
19 -11 9 -13 10 -20 1 -32 -10 -13 -10 -13 6 -1 18 14 19 13 21 -18 2 -28 11
-34 26 -16 7 9 9 15 3 13 -6 -2 -11 2 -11 7 0 6 3 9 7 8 18 -4 7 37 -15 58
-13 12 -24 32 -25 43 -1 18 -2 18 -9 -4 -8 -25 -8 -25 -9 -2 -1 13 -5 21 -9
18 -4 -2 -8 6 -8 19 0 22 9 25 12 4 3 -22 6 -23 14 -4 8 18 9 18 9 2 1 -10 6
-15 11 -12 7 4 6 14 -1 28 -10 22 -10 22 7 2 16 -20 16 -19 10 6 -4 20 0 31
17 45 22 19 22 19 4 -2 -22 -27 -22 -42 1 -21 14 13 21 14 30 5 9 -9 12 -9 12
-1 0 7 -5 15 -10 18 -8 5 -8 11 -1 19 6 7 9 16 6 20 -3 3 1 2 7 -4 14 -12 31
-13 24 -2 -3 5 1 9 9 9 8 0 12 -4 9 -9 -3 -4 2 -8 11 -8 10 0 13 5 9 12 -5 7
-3 8 6 3 10 -6 12 -4 7 8 -9 24 0 21 14 -4 6 -12 7 -19 2 -16 -5 3 -22 -5 -39
-18 -16 -13 -23 -24 -16 -25 7 0 17 -11 22 -25 13 -33 28 -32 33 3 l4 27 2
-28 c0 -16 5 -26 10 -23 5 3 7 15 4 26 -3 12 0 20 7 20 7 0 10 7 6 16 -4 10
-2 13 6 8 7 -5 8 -3 3 6 -6 9 -4 11 6 5 8 -5 11 -5 7 0 -4 4 0 14 10 22 16 12
16 13 -1 7 -13 -5 -16 -2 -11 10 5 14 9 14 22 4 13 -11 14 -11 7 1 -6 10 -4
12 5 6 9 -6 11 -4 5 5 -5 8 -4 11 2 7 5 -3 10 0 10 8 0 11 -4 12 -14 4 -9 -8
-13 -8 -13 0 0 6 5 11 11 11 5 0 7 4 4 10 -3 6 1 7 10 4 11 -5 14 -2 9 10 -3
9 -10 14 -14 11 -10 -6 -7 22 4 32 4 4 6 3 4 -2 -1 -6 2 -10 7 -10 6 0 10 12
9 27 0 16 2 25 5 22 3 -3 6 -11 6 -17 0 -7 10 -13 22 -15 18 -3 21 1 18 19 -2
12 -1 18 3 15 4 -4 7 -11 7 -14 0 -4 4 -13 9 -21 6 -9 5 -12 -2 -7 -6 3 -13 2
-17 -3 -3 -6 -13 -7 -23 -4 -14 5 -15 4 -6 -8 13 -16 15 -51 2 -43 -11 7 -10
-9 2 -24 7 -9 7 -9 -2 -2 -8 7 -20 2 -40 -17 -27 -26 -27 -27 -10 -47 17 -21
17 -21 -5 -2 -24 20 -32 10 -10 -14 10 -12 9 -12 -5 -1 -14 10 -18 9 -27 -7
-6 -11 -7 -23 -3 -27 4 -5 1 -5 -5 -1 -7 4 -13 3 -13 -3 0 -5 6 -12 13 -14 9
-4 9 -6 -1 -6 -7 -1 -10 -6 -7 -11 4 -6 1 -9 -5 -8 -7 2 -14 -5 -15 -14 -4
-21 11 -24 19 -5 3 6 3 0 1 -15 -2 -15 1 -30 6 -34 6 -3 5 -12 -3 -22 -12 -16
-11 -16 7 0 26 21 36 23 46 6 7 -11 9 -11 9 1 0 11 3 11 18 0 9 -7 14 -10 10
-5 -4 5 -3 17 3 27 6 13 6 19 -1 19 -5 0 -10 -7 -10 -17 0 -9 -3 -14 -6 -10
-4 3 -3 14 1 24 5 10 7 22 6 27 -1 5 7 6 19 3 11 -3 20 -1 20 4 0 5 -4 10 -10
10 -13 2 -29 6 -32 9 -10 8 -46 4 -44 -4 2 -6 1 -8 -1 -3 -3 4 -9 4 -15 1 -6
-4 -6 1 1 13 6 11 7 24 3 29 -4 5 2 2 13 -7 23 -18 47 -19 52 -2 3 8 -4 11
-18 8 -12 -2 -18 -1 -15 3 4 4 11 7 14 7 4 0 12 4 19 8 8 5 10 -1 8 -19 -2
-19 4 -28 22 -35 22 -8 23 -11 12 -26 -8 -9 -9 -14 -4 -11 6 4 11 -2 11 -13 0
-18 -1 -18 -18 3 l-17 23 2 -22 c1 -13 7 -23 15 -23 7 0 10 -5 7 -10 -4 -6
-11 -7 -17 -4 -7 4 -8 2 -4 -5 5 -7 12 -9 19 -3 14 10 27 10 44 -1 6 -4 15 -2
19 5 4 7 4 10 -1 6 -4 -4 -14 -3 -21 3 -16 13 0 54 17 44 5 -4 9 -3 8 2 -3 20
2 34 11 28 6 -4 8 -10 5 -15 -3 -4 3 -7 12 -6 9 2 19 9 21 17 3 11 1 11 -7 -1
-10 -14 -16 -7 -12 14 4 21 -10 56 -20 50 -8 -4 -7 -10 0 -17 6 -6 11 -18 10
-27 0 -10 -3 -9 -9 5 l-9 20 0 -20 c-1 -17 -3 -17 -11 -5 -5 8 -10 11 -10 6 0
-5 -7 -3 -15 4 -10 9 -15 9 -15 1 0 -6 5 -11 11 -11 5 0 7 -5 3 -11 -4 -8 -11
-4 -19 11 -8 14 -14 19 -18 11 -4 -8 -5 -7 -2 1 1 7 8 12 14 10 6 -1 11 2 11
6 0 5 6 9 14 9 8 0 12 -6 9 -14 -4 -9 0 -11 11 -7 9 4 14 9 12 12 -3 3 -1 11
5 18 6 8 8 21 5 30 -5 13 -4 14 7 6 10 -9 17 -8 27 1 10 9 11 9 6 -1 -4 -6 -2
-12 3 -12 6 0 11 -4 11 -8 0 -5 -7 -9 -15 -9 -8 0 -11 5 -8 10 3 6 1 7 -5 3
-6 -4 -8 -14 -5 -22 5 -13 7 -13 15 -2 5 8 7 2 3 -17 -4 -24 -3 -26 4 -10 l10
20 1 -20 c1 -16 3 -17 8 -5 8 17 20 19 38 7 7 -4 18 1 25 11 13 15 12 16 -3 4
-14 -11 -18 -11 -26 5 -6 10 -12 32 -15 48 -4 27 -2 30 23 31 21 1 27 -2 23
-12 -4 -10 -9 -11 -17 -5 -8 7 -12 2 -13 -17 -1 -17 1 -21 5 -12 14 31 39 20
33 -14 -1 -5 5 -4 13 4 19 15 21 24 4 14 -8 -5 -9 -2 -4 11 4 11 0 25 -8 34
-14 15 -13 17 5 18 10 1 17 -2 14 -7 -3 -5 -1 -11 5 -15 6 -4 7 -11 4 -17 -4
-7 -2 -8 5 -4 9 6 9 11 0 22 -6 8 -9 14 -5 14 4 0 -1 12 -10 28 -11 18 -11 21
-2 10 8 -10 18 -15 21 -11 7 6 11 -12 8 -30 -1 -5 3 -5 9 -2 8 5 6 14 -4 29
-12 19 -12 23 0 23 8 0 14 -6 14 -13 0 -7 4 -16 10 -19 6 -3 7 1 4 10 -4 8 0
23 7 32 8 9 13 18 12 20 -2 1 0 2 4 1 5 -2 9 -16 9 -33 2 -27 1 -28 -12 -10
-8 10 -14 14 -14 8 0 -7 5 -15 10 -18 6 -4 7 -12 3 -18 -5 -8 -2 -8 9 0 8 7
18 10 22 6 4 -4 4 1 0 10 -4 12 -2 17 7 15 7 -2 13 4 14 12 1 8 7 14 13 12 10
-2 10 3 2 18 -6 11 -16 18 -22 14 -6 -4 -8 1 -3 15 4 12 2 21 -4 21 -6 0 -10
-3 -10 -7 1 -5 1 -15 0 -23 -2 -22 -30 9 -36 40 -4 23 -25 52 -25 36 0 -5 -6
-3 -14 4 -8 6 -12 18 -9 26 3 9 0 13 -8 11 -8 -2 -11 -2 -6 0 4 3 7 11 7 20 0
8 6 13 13 10 7 -2 11 -18 10 -38 -2 -32 -2 -32 6 -7 5 14 13 32 17 40 12 19
13 37 3 44 -5 3 -6 10 -3 16 5 7 2 8 -6 3 -9 -5 -10 -2 -6 12 4 14 2 20 -9 20
-9 0 -14 -6 -11 -13 3 -8 -2 -11 -15 -9 -14 3 -19 -1 -17 -12 4 -20 -31 -26
-51 -10 -12 10 -14 9 -8 -5 3 -9 -1 -22 -8 -28 -8 -7 -13 -16 -10 -20 3 -5 1
-12 -5 -15 -6 -4 -9 -1 -8 7 2 7 -3 12 -10 10 -6 -1 -11 1 -11 5 1 5 0 10 -1
13 -9 24 -6 38 8 36 9 -2 17 -8 18 -15 1 -6 0 -7 -3 -1 -2 5 -9 7 -14 4 -6 -3
-5 -11 2 -20 19 -23 42 2 27 30 -12 22 -19 71 -9 60 3 -3 6 -14 6 -25 0 -10 5
-19 10 -19 6 0 10 9 10 19 0 11 7 26 15 33 12 11 12 11 2 -4 -15 -19 -2 -32
13 -14 16 18 17 37 3 55 -10 13 -10 14 2 4 8 -7 21 -13 29 -13 14 0 14 2 2 9
-8 5 -16 17 -17 25 -1 9 2 14 7 10 5 -3 7 -9 4 -14 -5 -8 24 -25 38 -21 5 1 6
-3 3 -8 -5 -8 15 -18 58 -27 16 -4 17 -2 6 11 -8 9 -9 15 -3 13 12 -3 13 0 13
35 0 18 -2 19 -10 7 -8 -13 -10 -13 -10 -1 0 11 -4 9 -15 -5 -12 -15 -14 -16
-9 -2 4 13 1 16 -13 14 -11 -2 -24 4 -30 13 -9 14 -8 18 3 18 7 0 11 -4 8 -9
-3 -4 0 -8 5 -8 11 0 12 3 15 43 1 15 7 21 19 19 14 -2 15 1 7 22 -8 22 -7 24
11 21 15 -3 19 0 15 10 -3 10 0 12 12 8 15 -6 15 -5 3 10 -12 15 -12 17 4 11
13 -5 16 -4 11 4 -4 7 -2 12 3 12 14 0 14 -6 1 -31 -6 -10 -8 -19 -6 -19 3 0
15 19 26 42 12 24 15 35 7 26 -9 -11 -18 -14 -28 -7 -11 7 -11 9 4 9 9 0 16 3
16 8 -3 20 2 32 16 32 14 0 19 12 16 33 0 4 4 7 10 7 5 0 7 5 4 10 -4 6 -10 8
-14 6 -4 -3 -8 2 -8 10 0 10 4 11 11 4 15 -15 30 -12 17 3 -8 10 -7 14 3 14
10 0 13 -9 9 -26 -3 -18 -1 -23 6 -16 6 6 12 26 14 45 2 26 7 34 20 32 12 -2
15 2 10 14 -4 12 -3 15 6 10 8 -5 10 0 7 18 -3 15 -1 24 4 21 5 -3 14 4 20 15
8 14 18 19 28 16 13 -5 12 -2 -3 10 -16 13 -16 15 -3 11 10 -3 20 -2 23 3 6
10 -9 15 -30 10 -5 -1 -7 2 -3 6 4 4 2 14 -4 23 -10 12 -8 12 8 -1 26 -23 41
-23 23 -1 -8 10 -9 14 -2 10 17 -10 27 11 13 28 -9 11 -7 13 7 11 24 -4 44 34
29 53 -6 9 -7 12 -1 9 14 -8 40 13 40 32 0 8 8 16 18 18 9 2 17 -1 17 -7 0 -6
-5 -10 -11 -9 -6 2 -13 -5 -14 -15 -2 -10 1 -14 7 -11 7 5 8 2 3 -6 -5 -8 -4
-11 2 -7 5 3 10 0 10 -8 0 -8 -5 -11 -11 -8 -6 4 -4 -2 4 -13 14 -18 14 -18
-5 -4 -18 14 -19 14 -7 -2 12 -14 11 -21 -2 -40 -9 -12 -16 -18 -16 -12 0 5 5
15 11 21 6 6 8 16 5 22 -11 17 -26 13 -26 -6 0 -15 2 -16 10 -3 5 8 10 11 10
5 -1 -5 -7 -19 -15 -29 -11 -14 -15 -16 -15 -5 0 12 -2 12 -9 0 -5 -8 -8 -23
-6 -33 2 -10 0 -16 -5 -13 -5 3 -7 -4 -5 -15 3 -14 0 -18 -8 -14 -8 5 -8 3 1
-7 6 -7 12 -18 12 -23 0 -6 -4 -5 -8 2 -6 8 -15 0 -31 -28 -22 -40 -35 -53
-25 -25 4 8 1 15 -5 15 -6 0 -10 -6 -9 -12 2 -7 -3 -12 -10 -10 -11 2 -16 -11
-13 -31 1 -5 -3 -6 -9 -2 -6 4 -7 -1 -3 -10 5 -14 8 -14 15 -3 7 10 8 8 4 -5
-3 -10 -2 -16 2 -13 5 3 9 -1 9 -9 0 -8 -5 -11 -10 -8 -6 4 -7 1 -2 -8 7 -12
6 -12 -7 -1 -13 10 -17 10 -22 -4 -4 -12 -2 -15 9 -10 14 5 21 -11 16 -38 -1
-5 4 -4 12 2 8 7 18 8 22 4 5 -4 5 -1 1 6 -4 7 -12 10 -17 7 -5 -4 -9 1 -9 10
0 9 4 14 9 11 5 -3 14 1 21 9 9 11 16 12 25 5 9 -8 15 -8 20 0 4 6 1 9 -5 8
-7 -2 -14 4 -15 12 -2 8 -6 23 -10 33 -5 12 -3 17 6 15 7 -2 14 3 15 10 1 6 2
18 3 25 1 8 4 8 10 -3 6 -8 7 -18 4 -24 -3 -5 -1 -6 5 -2 6 4 8 14 5 23 -4 11
-3 14 5 9 8 -5 10 -1 5 10 -5 13 -3 15 8 9 8 -4 11 -5 7 0 -10 11 11 47 23 40
5 -4 8 -1 7 7 -2 7 3 12 10 10 6 -1 11 3 10 10 -2 7 2 12 9 13 6 0 15 4 20 8
4 5 3 7 -3 5 -7 -2 -12 2 -12 7 0 6 3 9 8 8 4 -1 6 11 4 27 -2 19 1 29 8 27 7
-1 12 7 13 18 0 11 4 26 8 33 5 6 5 12 0 12 -4 1 3 7 16 14 19 10 20 14 8 19
-12 5 -16 32 -7 45 2 1 3 8 4 15 0 6 10 12 21 12 11 -1 19 -7 17 -14 -1 -7 2
-10 8 -6 8 5 8 11 0 20 -7 9 -6 16 3 24 8 6 17 9 20 6 4 -3 4 -2 1 3 -3 4 -9
7 -12 8 -20 2 -41 17 -36 26 3 5 13 4 22 -4 15 -11 15 -11 6 2 -12 18 -12 30
0 49 6 10 5 12 -2 7 -7 -4 -12 -1 -12 8 0 9 0 18 0 21 0 3 3 5 8 4 4 -1 6 -5
4 -10 -1 -5 4 -8 10 -7 7 2 11 -4 10 -12 -2 -8 -5 -23 -7 -32 -2 -10 5 -28 16
-40 l20 -23 -14 25 c-8 14 -13 32 -11 40 1 8 5 25 8 37 3 13 1 22 -4 20 -4 -1
-8 3 -8 8 0 6 4 9 10 7 5 -1 7 2 3 8 -5 8 -11 7 -21 -1 -17 -14 -19 2 -2 19 9
9 15 8 28 -3 15 -13 17 -13 17 0 0 8 -3 13 -5 10 -7 -7 -32 15 -32 27 0 6 8 4
18 -3 9 -7 14 -9 9 -4 -4 4 1 17 10 27 10 11 13 19 8 18 -21 -5 -25 1 -15 20
6 11 15 18 19 16 4 -3 8 1 8 9 0 8 -4 12 -9 9 -4 -3 -8 -1 -8 4 0 17 13 22 29
10 13 -10 14 -10 4 2 -10 10 -8 20 8 44 l21 31 -26 -30 c-28 -32 -36 -24 -11
11 8 12 12 24 9 27 -3 3 4 11 16 17 12 6 19 14 16 18 -3 3 1 16 10 30 9 13 11
22 6 18 -6 -3 -13 0 -16 6 -4 9 -5 8 -5 -2 2 -33 -3 -44 -10 -20 -5 16 -2 33
7 48 8 12 12 25 8 29 -3 3 -6 1 -6 -6 0 -7 -5 -9 -10 -6 -15 9 8 35 25 29 14
-6 15 -21 2 -41 -4 -6 -3 -15 3 -18 6 -4 10 -3 9 2 -1 4 0 10 1 13 6 13 5 78
-1 75 -4 -3 -13 3 -20 12 -12 14 -12 16 1 11 13 -5 16 2 15 30 0 20 -5 36 -13
38 -7 1 -8 0 -2 -3 18 -9 12 -36 -7 -29 -17 6 -17 5 0 -8 15 -12 16 -14 2 -20
-8 -3 -15 0 -15 6 0 6 -8 21 -17 32 -17 20 -17 20 0 7 9 -7 18 -11 18 -7 1 3
2 11 3 16 0 6 6 14 11 18 15 10 17 30 5 52 -6 11 -8 20 -6 20 11 0 46 -81 40
-92 -4 -6 -3 -8 4 -5 6 4 26 -21 48 -60 71 -130 188 -292 384 -532 52 -64 125
-155 162 -202 91 -117 337 -347 518 -485 123 -93 200 -165 254 -237 30 -40 79
-105 110 -145 31 -40 56 -75 56 -76 0 -2 -48 -6 -107 -9 -433 -23 -800 -62
-958 -102 -11 -2 -35 -8 -52 -11 -18 -3 -33 -10 -33 -14 0 -5 15 -4 32 1 47
13 81 12 75 -3 -2 -7 -14 -12 -25 -10 -12 2 -22 -2 -22 -7 0 -6 -6 -11 -14
-11 -14 0 -111 -40 -159 -67 -16 -8 -31 -12 -34 -9 -4 3 -12 -3 -20 -14 -15
-21 -61 -51 -49 -32 9 15 -7 22 -24 11 -10 -6 -11 -9 -2 -9 6 0 12 -7 12 -15
0 -11 -7 -14 -25 -11 -15 3 -23 1 -20 -5 4 -5 11 -6 17 -3 7 4 8 2 4 -4 -5 -9
-13 -9 -28 -1 -11 6 -18 7 -14 1 7 -12 -20 -36 -33 -28 -5 4 -12 2 -16 -4 -3
-5 -12 -10 -18 -10 -7 0 -6 4 3 11 13 9 13 10 0 7 -8 -3 -15 -15 -15 -29 0
-14 -5 -23 -12 -22 -7 2 -18 4 -25 5 -7 2 -12 -2 -13 -9 0 -21 -25 -38 -58
-39 -18 -1 -39 -3 -47 -5 -9 -2 -15 2 -14 12 1 12 -6 15 -32 12 -21 -2 -50 5
-74 17 l-41 21 -82 -45 c-45 -25 -116 -62 -157 -81 -41 -20 -81 -43 -87 -52
-7 -9 -13 -12 -13 -5 0 6 -6 9 -13 6 -7 -2 -46 -1 -85 4 -53 6 -75 5 -82 -3
-8 -9 -4 -11 14 -8 28 6 92 -13 103 -29 4 -7 0 -9 -10 -5 -32 12 -104 -24 -91
-45 3 -4 -15 -5 -40 -2 -47 7 -131 -10 -143 -29 -4 -7 1 -8 13 -3 46 18 121
19 147 1 15 -9 27 -21 27 -26 0 -10 -46 -23 -75 -21 -25 2 -62 -22 -69 -46 -3
-10 -31 -33 -62 -52 -52 -31 -104 -92 -104 -122 -1 -19 -41 -61 -78 -83 -18
-11 -32 -25 -32 -31 0 -7 -10 -21 -23 -31 -13 -10 -32 -37 -42 -61 l-19 -42
-12 27 -12 28 -1 -30 c-1 -37 79 -271 110 -323 39 -64 162 -224 222 -288 71
-76 120 -101 234 -120 49 -8 124 -21 168 -28 44 -8 113 -18 154 -22 41 -3 88
-10 105 -15 17 -5 112 -25 211 -44 177 -34 293 -62 266 -64 -8 -1 -42 -30 -75
-65 -50 -51 -65 -62 -79 -55 -24 14 -53 -4 -65 -40 -12 -34 -44 -55 -72 -46
-30 10 -59 -3 -75 -34 -9 -18 -39 -41 -87 -65 -95 -49 -168 -96 -168 -108 0
-5 -4 -7 -9 -4 -5 4 -11 1 -13 -5 -2 -7 -23 -18 -46 -24 -23 -7 -39 -9 -36 -4
3 5 -2 9 -10 9 -20 0 -32 -20 -17 -29 15 -9 -51 -71 -76 -71 -15 0 -15 -1 2
-14 18 -13 16 -15 -22 -34 -46 -24 -61 -19 -36 12 10 11 1 6 -20 -12 -20 -17
-50 -34 -65 -38 -43 -9 -49 -12 -24 -13 36 -1 25 -21 -11 -21 -21 0 -41 -8
-52 -20 -10 -11 -23 -20 -28 -20 -6 0 0 12 14 28 l24 27 -27 -24 c-15 -13 -26
-29 -25 -35 1 -6 -9 -10 -25 -8 -14 2 -29 -2 -33 -8 -5 -9 -1 -10 15 -5 15 5
20 4 16 -4 -13 -20 20 -12 40 10 27 30 46 38 101 44 26 4 59 14 72 23 62 44
79 52 113 52 42 0 148 47 148 66 0 12 29 36 115 95 59 41 102 61 132 63 12 1
31 10 43 21 12 11 31 20 43 22 57 5 110 35 126 70 7 14 32 34 64 48 28 12 65
34 81 48 28 24 108 57 138 57 7 0 29 19 49 42 l37 42 243 -32 c711 -96 1355
-225 1560 -313 32 -14 55 -32 65 -51 22 -42 81 -80 166 -107 41 -13 98 -40
126 -60 28 -20 80 -57 116 -83 36 -26 120 -79 188 -119 177 -105 318 -196 357
-233 18 -17 60 -64 94 -105 135 -164 422 -323 612 -338 84 -7 135 14 179 71
47 62 59 103 53 181 -7 90 -43 180 -118 292 -66 100 -217 283 -231 283 -6 0
-51 42 -102 93 -50 51 -121 121 -157 154 -88 82 -249 321 -249 370 0 37 -96
202 -169 291 -32 38 -95 87 -113 87 -3 0 -10 3 -14 8 -30 30 -282 -41 -451
-127 -68 -36 -99 -46 -136 -46 -67 0 -251 68 -639 236 l-137 59 57 7 c285 36
595 115 849 216 50 21 302 146 433 216 36 19 144 73 240 120 183 88 314 174
425 278 l61 57 55 -13 c150 -36 629 -182 643 -196 5 -6 4 -16 -4 -25 -8 -9
-17 -44 -21 -77 -8 -71 7 -135 52 -215 44 -80 158 -223 188 -236 31 -14 46
-30 151 -164 96 -121 125 -172 255 -449 115 -245 162 -320 247 -397 233 -208
423 -261 566 -157 51 36 92 113 99 185 8 79 -17 238 -49 310 -4 11 -10 31 -13
44 -9 46 -81 187 -126 246 -25 33 -78 93 -117 134 -40 41 -72 78 -72 83 0 5
-4 6 -10 3 -5 -3 -10 1 -10 10 0 9 -13 48 -30 87 -16 38 -30 76 -30 84 0 11
21 14 99 14 80 0 103 -3 122 -18 104 -80 356 -200 512 -243 37 -11 100 -28
140 -39 153 -43 427 -37 691 16 171 34 166 33 197 55 66 47 118 119 143 199
37 116 58 251 58 380 1 157 -26 244 -97 310 -15 14 -33 40 -41 58 -17 41 -80
116 -194 231 -92 93 -264 241 -281 241 -10 0 42 -48 111 -102 53 -42 28 -34
-48 15 -37 24 -88 57 -114 73 -67 41 -63 62 5 28 29 -14 28 -11 -16 31 -27 27
-52 43 -59 39 -6 -4 -8 -3 -5 3 10 16 -27 44 -49 37 -14 -4 -16 -3 -5 4 10 7
-2 22 -55 61 -37 28 -74 49 -81 46 -8 -2 -12 -1 -8 4 3 5 -10 19 -29 30 -42
26 -59 27 -27 1 13 -11 19 -20 14 -20 -13 0 -45 35 -38 42 5 5 -286 186 -405
251 -151 83 -483 202 -705 252 -39 9 -79 18 -90 22 -14 4 -17 2 -10 -5 6 -6
60 -27 120 -47 61 -20 121 -44 135 -53 14 -9 32 -17 40 -18 25 -3 105 -51 103
-61 -1 -6 9 -9 23 -7 15 1 34 -6 44 -16 10 -10 21 -16 24 -13 3 4 6 1 6 -6 0
-7 5 -9 10 -6 6 3 10 -2 10 -13 0 -23 -32 -23 -60 0 -16 15 -19 15 -24 1 -3
-8 -3 -20 1 -26 4 -7 -1 -6 -10 2 -9 7 -14 17 -11 22 3 5 2 9 -3 8 -20 -3 -27
2 -13 11 11 7 7 8 -15 6 -17 -2 -38 1 -49 6 -13 7 -16 7 -12 -1 10 -15 -7 -14
-24 2 -8 6 -6 2 5 -11 13 -16 21 -19 26 -10 4 7 11 9 16 5 4 -5 1 -12 -7 -17
-12 -7 -10 -14 10 -37 14 -15 -2 -3 -35 27 -32 30 -65 62 -72 70 -12 13 -12
13 -8 0 6 -18 -35 -23 -48 -6 -5 7 -6 3 -3 -7 4 -12 2 -17 -6 -14 -7 2 -12 15
-11 28 1 13 -1 18 -3 12 -4 -10 -11 -10 -27 -2 -22 11 -22 11 1 -10 12 -12 22
-27 22 -34 -1 -7 -22 11 -47 38 -25 28 -41 39 -34 27 18 -35 7 -37 -19 -5 -22
28 -22 28 -15 3 7 -24 6 -24 -20 5 -27 29 -27 29 -20 5 l8 -25 -24 20 -23 20
24 -35 c32 -47 34 -49 26 -22 -9 26 2 29 20 5 16 -21 18 -37 4 -28 -18 11 -11
-10 15 -45 30 -40 108 -190 103 -196 -2 -2 -28 39 -58 91 -29 52 -62 102 -72
112 -12 11 -5 -7 17 -47 37 -66 67 -130 60 -130 -2 0 -19 28 -38 62 -82 149
-121 189 -50 52 25 -47 43 -88 40 -90 -2 -3 -11 10 -20 28 -16 34 -111 181
-105 163 2 -5 25 -52 51 -104 27 -51 46 -95 43 -98 -3 -3 -10 7 -16 23 -11 28
-100 174 -107 174 -2 0 8 -23 23 -51 35 -70 24 -73 -17 -5 -18 30 -35 54 -37
52 -2 -2 11 -32 28 -66 36 -71 36 -92 0 -27 -23 41 -60 94 -60 85 0 -2 12 -28
26 -57 40 -84 22 -69 -30 24 -26 47 -49 85 -51 85 -2 0 12 -34 31 -76 19 -42
33 -78 31 -80 -2 -2 -23 32 -47 76 -25 43 -46 78 -47 76 -2 -2 11 -33 28 -71
16 -37 28 -69 26 -71 -2 -2 -22 32 -46 76 -23 44 -44 80 -47 80 -2 0 7 -25 21
-56 36 -81 30 -89 -11 -16 -19 34 -37 62 -39 62 -2 0 9 -29 25 -65 37 -82 25
-85 -15 -4 -37 75 -52 88 -27 22 35 -87 34 -89 -8 -18 -41 69 -48 66 -16 -7
25 -57 10 -45 -24 20 -28 51 -36 44 -15 -13 3 -11 -8 4 -25 33 -17 28 -33 52
-35 52 -3 0 4 -20 15 -45 27 -63 10 -56 -24 10 -15 30 -29 55 -32 55 -2 0 5
-24 16 -52 27 -72 25 -73 -15 -3 -41 71 -44 67 -11 -15 14 -33 23 -60 20 -60
-2 0 -22 35 -43 78 -44 84 -54 90 -20 11 31 -71 17 -71 -17 0 -15 33 -29 59
-31 58 -4 -4 12 -55 32 -100 9 -22 12 -37 8 -34 -4 3 -19 30 -33 61 -31 69
-45 73 -19 6 25 -66 15 -64 -16 3 -27 56 -35 40 -10 -20 8 -19 15 -38 15 -42
-1 -11 -23 32 -47 89 -26 62 -30 56 -9 -13 17 -58 11 -60 -15 -4 -17 37 -19
38 -15 12 3 -16 8 -39 12 -50 5 -14 4 -17 -3 -10 -6 6 -16 27 -23 48 -18 56
-22 40 -6 -22 17 -68 4 -53 -23 24 -17 50 -19 53 -14 20 3 -22 10 -50 14 -63
5 -12 5 -22 1 -22 -5 0 -16 21 -25 48 l-17 47 4 -43 c5 -49 -2 -49 -15 0 -8
30 -8 30 -5 -10 5 -52 -4 -47 -21 11 l-13 42 5 -55 4 -55 -12 42 c-14 48 -27
65 -28 37 -1 -15 -3 -13 -9 6 l-8 25 -1 -25 c-1 -20 -3 -22 -11 -10 -7 12 -10
8 -11 -15 -1 -29 -1 -29 -15 10 -7 22 -12 30 -10 18 2 -13 0 -26 -5 -29 -5 -3
-9 5 -10 18 -1 23 -1 23 -9 -2 -4 -14 -8 -19 -9 -11 -1 7 -7 11 -16 7 -10 -4
-15 1 -16 17 -1 21 -1 21 -9 -3 -5 -14 -9 -18 -10 -10 -1 8 -6 2 -10 -15 l-8
-30 -1 29 c-1 23 -3 26 -15 17 -12 -10 -15 -7 -19 16 -3 15 -3 6 -2 -22 1 -27
0 -42 -2 -32 -2 9 -8 15 -13 12 -4 -3 -6 5 -2 17 3 13 1 19 -6 15 -5 -4 -13
-1 -15 5 -3 7 -6 -3 -8 -22 -1 -25 -3 -28 -6 -12 -5 26 -33 30 -34 5 0 -10 -7
-2 -14 17 l-13 35 -3 -30 c-1 -24 -3 -26 -6 -7 -4 19 -6 20 -19 8 -8 -8 -14
-21 -15 -28 0 -7 -5 -1 -11 15 -12 33 -28 36 -22 5 2 -13 -3 -5 -11 17 l-15
40 5 -50 c4 -48 4 -49 -7 -15 -11 34 -11 35 -18 10 l-8 -25 -2 25 c-1 14 -4
19 -7 13 -7 -19 -23 -16 -24 5 0 14 -2 14 -9 -3 -7 -17 -9 -16 -10 10 l-1 30
-14 -25 c-8 -14 -15 -41 -15 -60 l-2 -35 -13 30 c-11 25 -13 27 -18 10 -4 -17
-5 -17 -6 -2 0 9 -9 17 -18 18 -42 2 -69 11 -80 27 -7 9 -17 22 -23 29 -5 7
-10 20 -10 29 0 15 -2 15 -25 0 -23 -15 -27 -15 -41 -1 -12 11 -14 25 -9 48 3
18 7 42 8 53 1 12 7 19 14 17 7 -3 10 3 6 16 -3 13 -1 21 6 21 7 0 9 -5 5 -12
-4 -6 -3 -8 4 -4 21 13 9 41 -19 42 -28 1 -49 -26 -49 -64 0 -9 -5 -24 -11
-32 -7 -11 -8 -3 -3 30 l6 45 -21 -24 c-11 -13 -21 -18 -21 -11 0 9 -3 10 -14
1 -16 -13 -29 -1 -46 43 -6 18 -15 26 -25 23 -9 -4 -22 7 -35 29 -12 19 -25
32 -28 30 -4 -2 -6 36 -4 86 4 99 -7 148 -18 88 -7 -32 -7 -33 -9 -7 0 16 -5
26 -11 22 -5 -3 -10 1 -10 9 0 9 -6 16 -14 16 -15 0 -229 200 -222 208 3 2 51
-39 107 -92 92 -86 139 -115 139 -85 0 5 -4 8 -9 4 -12 -7 -168 153 -221 227
-22 31 -40 64 -40 74 0 20 -60 217 -65 212 -2 -1 1 -26 7 -55 11 -54 2 -145
-11 -110 -4 10 -11 18 -16 18 -6 -1 -10 2 -10 7 0 4 -10 23 -22 42 -22 33 -23
34 -29 13 -8 -28 -24 -20 -24 10 1 12 0 64 0 115 0 51 4 132 10 181 5 49 9
113 9 143 -1 30 4 64 10 76 6 11 11 36 11 54 0 54 26 166 62 270 18 53 36 99
39 103 7 6 165 55 194 60 11 2 40 6 65 9 51 7 96 16 265 57 96 24 149 44 265
103 80 40 163 79 185 86 22 7 70 28 107 46 58 29 78 34 140 34 152 0 401 80
588 189 25 14 69 34 99 44 69 23 133 66 236 157 44 38 83 70 87 70 4 0 21 26
38 59 34 63 154 207 210 252 30 25 49 30 133 39 118 12 155 26 227 89 33 29
86 61 131 80 41 17 117 55 169 85 52 30 127 64 165 75 134 40 230 74 276 97
50 25 116 94 125 131 11 44 35 25 67 -54 32 -80 81 -150 120 -174 35 -21 97
-25 129 -8 25 14 50 72 43 102 -8 29 -53 57 -94 57 -23 0 -29 4 -25 15 4 9 0
15 -7 15 -11 0 -11 3 1 10 18 12 30 13 29 3 -5 -32 19 -40 44 -13 8 8 8 11 0
6 -7 -4 -14 5 -18 24 -7 31 -15 35 -74 31 -32 -3 -56 14 -45 31 9 14 58 8 91
-11 29 -19 43 -18 43 1 0 4 -7 8 -15 8 -8 0 -22 17 -31 38 -14 35 -16 36 -29
18 -8 -10 -16 -24 -18 -30 -5 -14 -55 11 -54 28 1 49 -17 60 -92 57 -37 -1
-42 1 -37 16 4 10 4 14 0 11 -8 -9 -65 53 -58 63 5 9 -16 23 -35 24 -18 0 -27
25 -10 25 7 0 -7 18 -31 41 -32 28 -52 39 -68 36 -18 -4 -21 -1 -16 15 3 10 2
18 -3 17 -13 -3 -47 13 -55 27 -5 7 -17 10 -28 7 -16 -4 -19 -2 -13 12 4 12 3
16 -4 12 -6 -4 -13 -4 -15 1 -6 15 -68 53 -77 47 -5 -3 -12 -1 -16 5 -9 15
-53 -11 -100 -60 -22 -23 -55 -50 -73 -62 -31 -19 -34 -19 -51 -4 -16 15 -19
15 -31 1 -14 -17 -30 -20 -30 -6 0 5 14 14 30 21 17 7 30 17 30 22 0 6 -7 7
-15 4 -8 -3 -22 -9 -30 -12 -13 -5 -15 3 -13 50 2 31 6 56 11 56 4 0 7 5 7 12
0 6 24 55 54 107 60 106 86 183 91 268 4 64 -6 76 -83 106 -53 21 -48 21 -74
-5z m-8592 -261 c-1 -6 -5 -18 -10 -25 -4 -7 -4 -12 1 -11 4 1 11 0 16 -1 4
-1 12 -4 17 -5 6 -1 11 -3 13 -5 1 -1 9 -3 17 -5 8 -1 22 -4 30 -6 9 -3 14 2
12 13 -2 16 11 30 33 34 6 1 17 5 26 8 9 4 21 1 27 -7 9 -11 8 -14 -3 -14 -8
0 -15 4 -15 9 0 5 -9 4 -20 -2 -12 -7 -18 -16 -13 -23 4 -7 -2 -5 -12 3 -17
14 -18 13 -12 -2 8 -21 -14 -40 -33 -28 -16 10 -33 3 -24 -11 3 -5 10 -7 15
-4 5 3 6 -2 2 -11 -4 -12 -3 -15 5 -10 19 12 14 1 -9 -20 -22 -19 -22 -19 -16
7 7 26 -12 56 -26 42 -4 -3 0 -11 8 -17 14 -10 14 -13 0 -31 -9 -11 -14 -15
-11 -9 7 15 -16 35 -30 26 -5 -4 -10 -16 -10 -27 0 -12 -5 -19 -14 -17 -8 2
-11 0 -7 -4 12 -12 36 -13 44 -2 3 6 1 8 -5 5 -6 -5 -8 1 -4 15 l5 22 9 -23
c4 -12 12 -20 17 -17 5 4 8 -2 6 -11 -1 -10 0 -22 3 -28 4 -5 6 -18 7 -27 0
-20 18 -25 24 -7 2 6 0 9 -5 6 -5 -3 -8 8 -8 24 2 42 3 43 17 30 8 -6 18 -7
22 -3 5 4 5 1 1 -6 -6 -10 -11 -10 -22 -1 -18 15 -18 7 1 -37 8 -20 19 -33 24
-30 5 4 12 2 15 -3 7 -10 -20 -9 -30 2 -4 4 -16 -1 -26 -10 -11 -10 -18 -13
-16 -8 2 6 -1 11 -7 13 -5 1 -10 -6 -10 -16 0 -11 -6 -26 -12 -34 -7 -8 -9
-19 -5 -23 4 -5 1 -5 -6 -1 -7 4 -10 11 -7 15 2 5 -2 17 -10 27 -14 18 -15 17
-11 -9 3 -15 1 -25 -4 -22 -5 3 -14 -3 -19 -12 -9 -15 -10 -14 -7 9 6 34 -28
81 -43 59 -5 -8 -11 -9 -15 -3 -3 6 -2 13 4 17 6 4 8 10 5 15 -3 5 -1 11 5 15
5 3 10 -1 10 -9 0 -8 4 -17 9 -20 5 -4 7 3 4 14 -3 11 -1 20 5 20 6 0 9 9 7
20 -2 11 1 20 7 20 5 0 8 -6 5 -14 -6 -14 10 -36 27 -36 6 0 5 5 -2 12 -7 7
-12 20 -12 30 0 10 -6 18 -12 18 -8 0 -9 3 -3 8 15 11 18 35 3 26 -10 -6 -11
-4 0 7 6 7 12 17 12 23 0 5 -7 1 -15 -10 -10 -12 -14 -14 -12 -4 2 8 2 12 0 8
-3 -5 -9 -8 -15 -8 -7 0 -7 5 1 13 6 8 7 18 3 22 -4 5 -2 5 4 2 7 -4 17 0 24
8 6 7 18 11 25 9 10 -4 13 2 11 23 -2 15 -1 34 1 40 6 16 22 8 19 -10z m2404
-618 c0 24 13 3 14 -23 2 -30 34 -68 50 -59 6 4 3 -3 -8 -15 -10 -12 -23 -19
-27 -16 -5 3 -9 1 -9 -3 0 -5 9 -14 20 -21 23 -14 18 -34 -6 -25 -14 5 -14 3
-4 -14 7 -10 22 -19 33 -19 11 1 22 -6 24 -14 4 -13 3 -13 -6 0 -9 12 -11 11
-11 -8 0 -13 4 -20 10 -17 6 3 10 1 10 -5 0 -7 -6 -10 -14 -7 -8 3 -17 1 -20
-6 -2 -7 -3 4 0 23 3 27 2 31 -5 15 -9 -18 -10 -18 -10 -2 -1 10 -6 15 -11 12
-6 -4 -7 -12 -4 -18 4 -7 -4 -2 -18 11 -17 15 -28 20 -33 13 -10 -17 -25 -3
-18 16 4 11 3 14 -6 9 -6 -4 -11 -4 -10 1 1 4 1 17 0 28 -1 16 -3 17 -10 5 -6
-8 -7 -19 -4 -25 4 -5 3 -7 -1 -3 -4 3 -6 8 -4 11 2 3 -6 15 -17 27 -14 15
-15 21 -5 18 9 -2 15 5 15 17 0 29 13 44 34 40 11 -2 29 7 42 21 18 19 19 23
6 18 -12 -4 -17 -1 -17 12 0 16 2 17 10 4 8 -12 10 -12 10 -1z m-2898 -54 c-4
-5 -7 -13 -7 -17 0 -3 -4 -10 -8 -15 -5 -4 -7 -1 -5 7 2 8 -3 14 -10 12 -8 -1
-11 2 -8 7 4 5 2 12 -4 16 -10 6 -13 -3 -13 -38 0 -13 -3 -15 -12 -7 -9 8 -15
8 -20 0 -3 -5 0 -10 7 -10 10 0 9 -3 -2 -9 -8 -6 -18 -7 -24 -4 -5 4 -7 -1 -3
-10 3 -8 -1 -21 -8 -27 -8 -7 -12 -16 -9 -21 3 -5 -1 -6 -9 -4 -16 7 -47 -25
-51 -52 -2 -10 -11 -17 -20 -17 -9 1 -16 -2 -16 -7 0 -20 -2 -25 -18 -42 -15
-17 -17 -17 -29 -1 -9 12 -9 22 -2 36 6 11 8 22 5 26 -4 3 4 16 16 29 12 13
18 23 14 23 -5 0 -3 7 4 15 9 11 16 12 25 5 13 -11 24 2 54 62 9 17 20 25 32
23 12 -3 25 5 35 20 9 14 20 22 25 20 4 -3 14 3 20 14 12 19 13 18 30 -3 9
-11 14 -25 11 -31z m8458 -176 c-11 -30 -20 -56 -20 -59 0 -10 28 37 38 65 10
27 11 25 6 -20 l-5 -50 21 25 21 25 -3 -25 c-2 -18 -10 -26 -28 -28 -45 -5
-80 -24 -93 -51 l-13 -26 65 2 c37 1 59 0 51 -3 -8 -3 -24 -9 -35 -14 -11 -5
-33 -13 -50 -18 -27 -8 -24 -10 38 -17 37 -4 67 -11 67 -16 0 -4 -11 -6 -24
-3 -34 6 -51 -24 -28 -49 15 -17 15 -17 -2 -11 -13 5 -24 -1 -40 -21 -15 -18
-33 -28 -56 -30 -19 -2 -37 -4 -40 -5 -3 -1 -15 -1 -28 0 -13 1 -29 -4 -37
-10 -8 -6 -18 -9 -24 -6 -9 6 -26 -7 -130 -99 -25 -22 -39 -31 -31 -20 25 35
164 165 192 180 15 8 36 34 47 58 36 74 77 145 94 162 9 9 17 21 17 27 0 14
42 99 47 94 2 -2 -5 -28 -17 -57z m-4805 -238 c3 -19 8 -37 10 -41 2 -3 6 -28
10 -56 22 -189 45 -249 145 -374 33 -41 60 -78 60 -83 0 -15 -58 32 -105 86
-105 119 -167 333 -139 476 8 38 11 36 19 -8z m166 -32 c11 -6 43 -12 70 -15
55 -4 110 -29 152 -68 15 -14 30 -26 32 -26 12 0 73 -36 110 -64 57 -43 130
-120 162 -168 l27 -40 -29 -24 c-32 -25 -110 -56 -119 -47 -3 3 -12 0 -20 -6
-8 -7 -21 -9 -27 -5 -7 4 -31 8 -53 9 -23 1 -60 2 -82 3 -30 1 -58 13 -98 41
-65 43 -130 132 -121 162 4 11 2 19 -3 19 -16 0 -42 77 -42 123 0 47 10 117
17 117 2 0 13 -5 24 -11z m-2166 -119 c4 -6 -15 -38 -41 -73 -25 -34 -49 -69
-52 -77 -3 -8 -30 -43 -58 -77 -47 -55 -84 -111 -84 -128 0 -3 6 -5 13 -5 14
0 47 35 47 51 0 5 5 7 10 4 6 -3 10 -2 10 2 0 9 32 49 90 113 27 30 41 38 58
33 28 -7 29 -23 0 -23 -17 0 -19 -3 -10 -12 8 -8 9 -15 1 -25 -9 -10 -8 -13 5
-13 9 0 16 3 16 8 0 7 72 33 78 27 2 -2 -10 -11 -27 -21 -27 -16 -30 -22 -30
-70 0 -68 -18 -128 -47 -155 -30 -28 -30 -36 -1 -34 12 1 29 -3 37 -9 13 -10
13 -9 1 6 -7 10 -18 15 -24 11 -6 -3 -7 -1 -3 5 3 6 15 9 26 7 11 -2 22 1 25
6 4 5 11 7 16 4 5 -4 9 -1 9 6 0 8 3 9 14 0 10 -9 17 -7 27 6 12 14 12 16 0 8
-10 -5 -12 -4 -7 3 4 7 16 12 26 12 15 0 18 6 14 35 -3 24 0 35 9 35 7 0 13
-10 14 -21 3 -39 19 -42 47 -8 15 17 29 29 33 26 7 -7 -35 -67 -59 -85 -12 -9
-18 -26 -18 -52 0 -39 -15 -85 -35 -105 -5 -6 -56 -46 -112 -88 -57 -43 -103
-80 -103 -82 0 -3 11 1 25 7 14 6 25 15 25 20 0 4 5 8 10 8 6 0 29 9 50 19 22
11 40 15 40 11 0 -5 -9 -12 -21 -15 -39 -13 -63 -46 -65 -92 -3 -46 10 -58 22
-21 6 21 7 21 21 2 12 -16 12 -20 -4 -31 -9 -7 -14 -13 -10 -13 4 0 -1 -10
-13 -22 -11 -12 -19 -33 -19 -47 2 -26 2 -26 6 2 4 28 23 38 23 12 0 -20 39
-20 46 0 4 8 10 13 14 10 5 -3 13 3 19 12 6 10 11 14 11 8 0 -7 3 -7 8 0 4 6
27 17 52 26 43 15 46 19 63 75 10 32 24 70 31 84 37 73 42 171 20 375 -8 78 5
64 22 -22 17 -88 17 -200 0 -288 -8 -38 -12 -72 -10 -74 2 -2 13 4 24 14 11
10 23 15 27 11 4 -4 -14 -27 -40 -50 -28 -26 -47 -53 -47 -65 0 -21 1 -21 43
6 23 15 62 43 87 63 25 20 60 44 78 54 17 9 32 24 33 34 0 10 3 12 6 5 5 -13
-226 -242 -283 -281 -35 -24 -111 -163 -99 -182 3 -5 1 -10 -4 -10 -6 0 -10
-3 -9 -7 1 -5 -2 -28 -6 -53 -5 -25 -8 -48 -7 -52 0 -5 -3 -8 -8 -8 -5 0 -14
-13 -21 -30 -7 -16 -17 -30 -23 -30 -6 0 -8 -3 -4 -6 5 -5 -26 -40 -134 -151
-20 -20 -29 -38 -26 -47 4 -9 1 -16 -6 -16 -9 0 -8 -3 1 -9 11 -7 11 -9 -2
-14 -8 -3 -15 -14 -15 -24 1 -10 -2 -31 -6 -48 -4 -16 -8 -43 -9 -60 -1 -16
-5 -36 -10 -44 -5 -8 -9 -34 -9 -58 0 -24 -3 -43 -7 -43 -5 0 -7 -8 -6 -17 2
-10 -3 -36 -11 -58 -8 -22 -16 -44 -17 -50 -2 -5 -9 -23 -15 -40 -7 -16 -14
-38 -17 -49 -2 -10 -13 -25 -24 -33 -11 -8 -18 -18 -15 -23 3 -4 -2 -11 -11
-14 -8 -3 -12 -10 -9 -16 3 -6 0 -7 -9 -4 -10 4 -19 -2 -25 -17 -11 -29 -46
-60 -57 -51 -4 4 -4 1 0 -6 5 -9 1 -15 -14 -19 -15 -4 -20 -11 -17 -24 3 -12
1 -17 -6 -12 -7 4 -8 0 -4 -11 4 -10 3 -15 -3 -11 -6 3 -10 1 -10 -6 0 -6 -8
-18 -17 -26 -10 -8 -12 -11 -4 -7 9 4 12 3 8 -4 -4 -5 -17 -8 -30 -5 -16 3
-18 2 -9 -5 11 -7 11 -10 -2 -15 -9 -4 -16 -2 -16 4 0 6 -8 3 -17 -8 -10 -10
-16 -14 -13 -8 3 6 -2 3 -12 -7 -9 -10 -21 -18 -27 -18 -6 0 -11 -5 -11 -11 0
-5 -4 -7 -10 -4 -5 3 -10 1 -10 -6 0 -7 -16 -27 -35 -45 -19 -17 -35 -30 -35
-28 0 2 -8 -4 -18 -13 -11 -10 -18 -20 -16 -23 1 -3 -7 -7 -18 -7 -11 -1 -29
-10 -39 -19 -11 -9 -19 -13 -19 -9 0 4 -12 -5 -26 -21 -15 -16 -23 -22 -19
-14 3 8 -1 6 -9 -4 -9 -11 -16 -16 -16 -12 0 5 -12 1 -26 -9 -15 -10 -23 -12
-19 -4 5 7 -1 6 -14 -4 -13 -8 -30 -13 -39 -10 -9 4 -13 2 -9 -4 5 -7 -1 -9
-15 -5 -16 4 -19 2 -13 -9 8 -12 6 -12 -8 0 -16 13 -21 9 -18 -14 1 -5 -5 -2
-12 7 -9 11 -18 14 -27 8 -8 -5 -18 -6 -22 -4 -4 3 -8 2 -8 -3 0 -6 -154 -10
-167 -4 -2 1 -5 0 -7 -1 -2 -2 -14 6 -27 17 -12 11 -19 15 -16 8 4 -6 3 -15
-3 -18 -6 -4 -9 -1 -8 7 2 7 -4 12 -14 10 -9 -1 -22 7 -28 18 -6 11 -17 20
-25 20 -8 0 -15 5 -15 10 0 6 -3 9 -7 8 -5 -2 -9 1 -10 5 -1 5 -17 22 -35 39
-18 17 -26 27 -18 22 9 -5 6 0 -7 11 -13 12 -23 29 -23 38 0 10 -4 16 -8 13
-4 -2 -9 5 -10 17 -2 35 -9 70 -20 98 -6 15 -8 30 -5 33 4 3 1 6 -5 6 -6 0 -9
7 -5 17 4 11 3 14 -5 9 -9 -5 -9 0 -2 20 6 15 8 41 5 58 -4 17 -7 37 -7 44 -1
6 -5 12 -10 12 -5 0 -6 5 -3 10 3 6 2 10 -4 10 -5 0 -8 9 -6 20 2 11 0 20 -4
20 -7 0 -34 51 -37 70 0 3 -6 24 -13 48 -31 108 -19 212 33 289 14 21 26 43
26 50 0 7 4 13 8 13 4 0 14 17 21 38 8 20 20 45 29 55 8 9 12 17 8 17 -4 0 0
12 8 28 22 41 68 154 68 169 0 4 8 19 18 33 10 14 21 41 25 60 4 19 12 40 17
47 6 7 5 14 -2 18 -6 3 -7 11 -4 17 4 5 8 26 10 45 5 52 66 133 99 133 8 0 15
5 15 11 0 7 41 52 91 101 49 49 95 99 100 111 6 12 19 38 29 57 11 19 19 42
20 50 1 30 133 157 190 183 31 15 64 34 75 44 11 10 40 32 65 48 25 17 51 36
58 43 7 6 20 12 29 12 16 0 15 27 -2 135 -4 24 2 38 31 70 20 22 33 33 29 25
-5 -8 -17 -25 -28 -38 l-21 -22 24 -91 c23 -89 23 -91 5 -127 -10 -20 -18 -40
-17 -44 1 -5 -4 -8 -10 -8 -25 -1 -58 -38 -58 -65 0 -14 -4 -24 -9 -21 -8 6
-21 -14 -27 -42 -2 -10 1 -11 12 -1 11 9 14 9 14 -1 0 -8 3 -10 6 -7 4 4 2 12
-4 20 -8 10 -6 13 9 13 14 0 18 -5 13 -21 -3 -11 -2 -15 3 -9 4 6 16 10 26 8
11 -1 17 0 14 2 -6 6 39 56 48 54 3 -1 18 6 32 15 18 12 23 13 18 4 -3 -8 1
-5 9 5 9 11 16 16 16 11 0 -4 8 -1 18 7 9 8 51 35 92 58 103 59 117 71 173
148 128 177 188 231 212 192z m1345 -71 c9 -15 8 -24 -1 -35 -9 -11 -8 -14 9
-14 21 0 32 -33 32 -97 0 -30 -3 -34 -20 -28 -18 6 -20 3 -16 -19 5 -30 -1
-32 -32 -10 -13 9 -26 13 -29 10 -4 -3 -2 -6 3 -6 5 0 10 -11 10 -24 2 -22 0
-23 -17 -13 -10 6 -19 15 -19 18 0 13 -61 69 -75 69 -8 0 -15 7 -15 16 0 14 2
15 17 3 15 -13 16 -11 9 14 -5 23 -1 34 21 57 36 37 99 65 107 47 4 -6 4 -2 2
11 -5 28 0 28 14 1z m3867 -154 c0 -8 -3 -12 -7 -10 -15 9 -115 -34 -118 -50
-3 -13 -10 -15 -30 -10 -26 6 -26 6 -7 -9 19 -14 19 -15 -7 -12 -15 2 -25 0
-23 -5 3 -4 -9 -11 -27 -14 -18 -4 -39 -12 -45 -17 -7 -6 -22 -8 -33 -5 -11 3
-18 1 -14 -4 3 -5 -7 -9 -21 -9 -20 0 -26 -4 -21 -15 3 -8 1 -15 -4 -15 -6 0
-10 3 -10 8 0 4 -11 7 -24 7 -13 0 -23 -2 -21 -4 3 -2 -7 -12 -20 -23 -17 -13
-32 -17 -46 -13 -12 4 -19 3 -16 -1 3 -5 -5 -10 -16 -10 -23 -2 -129 -38 -150
-51 -6 -4 -16 -8 -22 -9 -5 -1 -34 -9 -63 -17 -29 -9 -50 -12 -47 -7 3 5 20
12 38 15 17 4 37 11 42 15 6 4 28 13 50 20 22 7 92 37 155 67 63 30 129 60
145 68 60 28 109 46 169 60 34 9 70 20 81 25 11 5 40 16 65 24 25 8 45 15 46
16 0 0 1 -7 1 -15z m-7751 -325 c0 -21 -4 -38 -9 -37 -5 1 -14 -13 -19 -32 -7
-27 -12 -31 -19 -20 -6 9 -8 -1 -5 -31 3 -25 2 -39 -1 -32 -2 6 -9 12 -14 12
-6 0 -7 -5 -3 -12 4 -7 3 -8 -4 -4 -7 4 -12 1 -13 -6 0 -7 -4 -4 -9 7 -8 20
-9 20 -9 -1 -1 -28 9 -36 28 -22 10 8 9 4 -3 -10 -11 -12 -16 -22 -11 -22 4 0
2 -7 -5 -15 -7 -8 -9 -15 -5 -15 5 0 0 -9 -10 -20 -16 -18 -20 -19 -35 -5 -9
8 -20 12 -23 8 -11 -10 -8 -23 4 -20 15 3 20 -26 8 -44 -8 -12 -9 -11 -7 1 4
22 -32 71 -46 63 -6 -4 -5 1 3 10 7 9 10 17 5 17 -4 0 3 11 15 24 15 16 19 26
12 31 -6 3 -9 11 -5 16 4 6 11 6 20 -2 12 -10 17 -6 27 20 7 18 17 29 24 27
16 -6 47 59 45 93 -1 13 1 21 5 17 3 -3 12 -1 20 5 17 15 17 0 0 -20 -10 -11
-11 -24 -6 -41 9 -25 9 -25 5 2 -2 17 1 25 7 21 6 -4 7 -1 2 7 -5 8 -4 11 3 6
17 -10 23 9 8 30 -10 14 -11 23 -4 32 15 18 22 7 24 -38z m4216 -857 c2 -5 32
-33 68 -63 36 -30 71 -61 78 -67 7 -7 18 -13 23 -13 5 0 9 -7 9 -16 0 -13 -2
-13 -14 -2 -27 26 -56 48 -56 43 0 -3 -10 4 -22 15 -29 27 -58 43 -58 32 0 -5
11 -18 25 -30 14 -12 25 -19 25 -16 0 2 11 -6 24 -19 14 -14 45 -40 70 -58 54
-38 61 -57 11 -28 -60 36 -42 -2 20 -41 30 -19 55 -38 55 -42 0 -12 -7 -10
-50 12 -42 22 -55 15 -19 -10 11 -8 28 -20 37 -27 10 -6 14 -14 10 -18 -7 -8
-68 16 -68 26 0 4 -7 9 -15 13 -9 3 -15 0 -15 -9 0 -8 6 -15 14 -15 7 0 25 -9
38 -20 14 -10 28 -16 32 -13 3 3 6 -32 6 -80 0 -47 5 -109 11 -137 9 -44 16
-53 50 -70 21 -11 39 -25 39 -30 0 -16 -44 -4 -89 24 -22 15 -41 23 -41 19 1
-11 93 -73 108 -73 7 0 12 -4 12 -10 0 -14 -7 -13 -35 6 -14 9 -25 12 -25 6 0
-6 20 -18 45 -28 25 -9 51 -26 57 -37 10 -19 8 -20 -50 -14 l-60 6 12 -47 c7
-26 16 -57 20 -69 10 -31 -9 -29 -39 3 -14 15 -25 24 -25 20 0 -20 41 -77 97
-136 63 -66 133 -153 133 -165 0 -4 10 -15 23 -26 12 -10 17 -18 10 -19 -6 0
-21 12 -32 28 -55 71 -93 115 -182 207 -178 185 -240 296 -282 505 -19 94 -31
235 -28 320 2 36 3 77 4 93 0 15 4 27 10 27 5 0 6 11 3 25 -5 18 -2 25 8 25 8
0 16 -3 18 -7z m-237 -550 c21 -26 32 -44 24 -41 -8 3 -23 0 -33 -8 -16 -11
-17 -16 -6 -29 9 -11 10 -19 3 -26 -11 -11 -5 -56 9 -65 5 -3 1 -12 -9 -19
-10 -7 -18 -17 -18 -22 -1 -4 -6 -18 -13 -31 -7 -12 -10 -27 -7 -32 3 -5 0
-12 -6 -15 -5 -4 -8 -12 -6 -19 3 -6 -1 -20 -9 -31 -10 -13 -11 -22 -3 -31 7
-8 7 -14 -1 -19 -5 -3 -10 2 -10 12 0 14 -3 12 -13 -7 -7 -14 -9 -27 -5 -28 5
-2 4 -10 -3 -18 -6 -8 -16 -11 -22 -7 -6 4 -8 0 -4 -10 3 -9 3 -16 -1 -16 -4
1 -13 1 -21 0 -12 -1 -12 -3 2 -13 23 -18 29 -64 10 -80 -14 -11 -15 -10 -9
12 6 22 5 21 -11 -5 -9 -16 -16 -37 -15 -45 3 -13 2 -13 -8 0 -8 12 -10 12 -7
-5 4 -33 22 -33 22 0 1 17 5 29 10 28 13 -4 14 -24 1 -48 -6 -11 -11 -23 -12
-27 -1 -5 -3 -10 -4 -13 -6 -13 -5 -31 2 -41 5 -7 2 -14 -7 -18 -9 -3 -14 -10
-10 -15 3 -5 1 -12 -4 -16 -5 -3 -8 -14 -6 -25 2 -11 -1 -19 -8 -17 -6 1 -12
-8 -13 -20 -1 -13 -7 -29 -14 -38 -7 -8 -9 -15 -4 -15 4 0 -6 -15 -23 -32 -16
-18 -37 -44 -46 -58 -11 -15 -17 -19 -17 -10 -1 9 -7 4 -14 -10 -8 -14 -12
-29 -9 -34 4 -5 1 -6 -5 -2 -16 10 -24 -11 -13 -33 8 -14 6 -22 -9 -36 -17
-16 -18 -16 -15 2 1 10 -4 28 -11 41 -14 21 -9 28 19 23 4 -1 16 14 27 31 11
18 25 33 32 33 7 0 13 11 13 25 0 14 3 30 6 35 4 6 5 18 4 27 -2 11 3 15 15
13 22 -4 52 37 55 75 1 14 -5 34 -14 44 -9 11 -11 16 -4 13 20 -12 27 15 8 29
-16 12 -22 11 -39 -4 -16 -13 -18 -13 -8 -1 6 9 9 19 6 22 -4 3 5 4 20 1 20
-3 24 -1 20 11 -3 8 -10 13 -14 10 -5 -3 -7 3 -5 12 1 10 -2 27 -7 38 -9 19
-8 19 5 2 9 -10 18 -14 21 -9 3 5 -1 15 -9 22 -8 7 -15 17 -15 22 0 6 9 0 20
-13 10 -13 19 -19 20 -12 0 6 -4 14 -10 18 -5 3 -6 13 -3 22 5 12 3 14 -8 8
-8 -4 -1 6 15 23 17 18 26 32 22 32 -5 0 -1 11 7 24 12 18 13 26 4 37 -8 9 -6
8 7 -1 18 -14 19 -13 13 2 -7 19 8 34 18 18 4 -6 11 -7 17 -4 6 4 5 10 -3 16
-11 7 -9 8 4 4 12 -4 17 -2 15 6 -3 7 -10 13 -16 13 -5 0 -14 4 -19 8 -4 5 -1
7 7 5 10 -2 14 3 12 15 -2 9 4 20 13 23 8 3 15 10 15 16 0 5 -4 7 -9 3 -5 -3
-13 -1 -16 5 -4 6 -1 9 7 8 7 -2 12 3 10 10 -1 7 5 15 13 18 8 4 15 10 15 16
0 5 -4 7 -8 4 -5 -3 -9 1 -9 9 0 8 4 12 8 9 9 -5 14 3 23 39 4 16 3 26 -2 23
-5 -3 -9 1 -9 9 0 12 3 12 15 2 13 -10 15 -9 10 11 -4 12 -2 20 2 17 20 -12
18 15 -2 41 -20 26 -20 27 -2 11 11 -9 24 -14 27 -10 10 10 8 25 -2 19 -5 -3
-14 1 -20 8 -14 16 3 17 28 2 11 -7 13 -5 9 6 -4 8 -2 21 3 29 5 9 3 22 -7 36
-23 36 -12 27 31 -24z m-4360 -1162 c4 -11 3 -11 -9 -2 -15 12 -18 10 -30 -23
-5 -14 -2 -17 9 -12 9 3 13 2 10 -4 -3 -5 -21 -7 -41 -5 -23 2 -34 -1 -31 -9
3 -6 11 -10 18 -8 11 3 11 1 2 -9 -10 -10 -9 -17 5 -33 16 -20 16 -20 -2 -6
-18 14 -19 13 -13 -3 4 -11 3 -16 -4 -12 -6 4 -8 13 -5 21 3 8 0 14 -7 14 -8
0 -8 3 2 9 9 6 10 11 3 15 -6 4 -16 -2 -21 -13 -8 -14 -8 -21 2 -25 6 -3 -1
-3 -16 -1 -19 3 -27 0 -24 -8 2 -7 13 -12 25 -12 11 0 27 -7 34 -15 11 -12 11
-12 -5 0 -19 14 -19 7 -2 -60 2 -8 4 -19 4 -23 1 -5 5 -6 10 -3 10 7 9 25 -3
44 -4 7 -5 16 -2 19 3 4 6 1 6 -6 0 -7 5 -9 10 -6 6 4 10 3 9 -2 -1 -4 0 -11
1 -15 1 -5 4 -12 5 -18 1 -5 4 -12 5 -15 1 -3 3 -15 4 -27 1 -13 7 -22 13 -21
7 2 10 -9 7 -30 -4 -25 -3 -29 7 -17 9 13 10 12 5 -4 -5 -13 -2 -17 8 -13 11
4 13 1 9 -10 -5 -12 -2 -15 9 -10 16 5 19 -7 7 -28 -11 -21 -3 -40 16 -40 11
1 19 7 17 14 -1 7 2 10 8 6 8 -5 8 -11 -1 -21 -6 -7 -15 -11 -20 -8 -5 3 -9
-2 -9 -10 0 -18 20 -17 35 2 8 10 17 6 39 -17 16 -17 33 -28 39 -24 5 3 2 -6
-7 -20 -14 -21 -14 -25 -3 -30 8 -3 19 -1 25 5 8 8 13 7 18 -5 3 -9 10 -15 14
-12 5 3 12 0 16 -6 4 -8 3 -9 -5 -5 -16 11 -26 -21 -11 -39 10 -12 16 -13 27
-3 8 6 13 7 11 2 -2 -5 2 -9 7 -9 6 0 9 4 7 8 -1 5 2 6 8 2 7 -4 1 -18 -15
-37 -23 -27 -26 -56 -4 -42 5 3 7 9 4 13 -2 5 5 17 18 27 12 11 17 12 11 4
-11 -14 -10 -87 1 -98 4 -4 9 38 7 59 -1 3 6 6 14 6 10 0 11 -4 4 -11 -5 -5
-10 -20 -10 -31 0 -12 -9 -30 -20 -40 -11 -10 -20 -15 -20 -12 0 17 3 22 11
19 6 -1 6 4 0 15 -5 10 -10 23 -11 28 -1 6 -7 9 -13 8 -7 -2 -23 13 -36 32
-19 28 -27 33 -37 24 -8 -6 -12 -15 -9 -19 3 -5 1 -11 -4 -14 -19 -12 -20 12
-1 29 15 14 17 21 9 32 -10 11 -14 10 -26 -4 -10 -14 -13 -15 -12 -3 1 8 -3
27 -9 42 -8 20 -17 26 -32 23 -11 -2 -18 0 -15 5 3 6 1 18 -4 27 -8 14 -10 14
-11 3 0 -25 -30 12 -36 45 -7 38 -13 47 -27 38 -7 -3 -4 2 5 13 12 14 14 24 6
37 -9 17 -11 17 -27 2 -17 -14 -19 -14 -32 1 -8 10 -15 25 -15 36 -1 10 -3 20
-4 23 -1 3 -3 8 -4 13 -1 4 -5 13 -9 20 -5 6 -6 16 -3 21 3 5 0 14 -8 20 -8 7
-13 20 -11 29 1 9 -2 26 -8 37 -6 11 -11 27 -12 35 0 8 -4 14 -10 13 -5 -1
-10 14 -10 32 0 26 4 32 17 30 10 -2 23 5 28 16 6 11 16 17 21 13 6 -3 13 4
16 17 6 22 7 22 14 3 6 -15 8 -15 8 -3 1 9 8 22 16 29 8 7 12 17 9 22 -3 5 3
4 15 -4 11 -7 23 -19 26 -27z m10015 -214 c0 -7 4 -6 10 3 8 13 11 12 25 -5
13 -15 15 -16 11 -3 -2 9 2 22 10 28 11 10 14 10 14 1 0 -7 5 -9 11 -5 8 5 8
1 0 -14 -12 -23 -2 -35 18 -22 8 4 11 14 7 21 -4 8 1 4 10 -8 9 -13 21 -23 26
-23 6 0 5 7 -2 15 -9 10 -9 15 -1 15 6 0 11 -5 11 -11 0 -5 5 -7 12 -3 6 4 8
3 5 -2 -3 -6 -1 -16 4 -24 7 -12 11 -13 18 -2 7 11 9 11 14 -2 4 -9 15 -16 26
-16 11 0 25 -9 31 -20 6 -11 16 -17 22 -14 7 4 8 3 4 -4 -8 -14 13 -58 23 -46
3 5 12 10 19 12 6 1 18 3 25 5 6 1 11 -7 10 -17 -1 -11 7 -31 18 -44 21 -27
25 -22 8 10 -9 16 -8 19 2 13 9 -6 11 -3 6 9 -4 10 -3 15 4 11 5 -4 7 -15 4
-24 -4 -15 0 -18 20 -16 14 2 27 -1 31 -6 3 -5 10 -7 15 -4 5 3 6 -2 2 -11 -4
-11 -3 -15 4 -11 13 8 11 -39 -2 -51 -4 -4 -5 2 -1 13 5 16 1 21 -14 21 -14 0
-19 -5 -15 -16 3 -10 0 -9 -9 4 -8 10 -19 15 -25 12 -5 -4 -15 2 -21 11 -9 14
-12 15 -17 5 -3 -9 -14 1 -30 28 -25 41 -45 51 -24 12 26 -48 8 -32 -22 19
-42 74 -56 89 -73 82 -19 -7 -18 -25 2 -21 10 2 19 -4 21 -12 4 -13 3 -13 -6
0 -10 13 -11 13 -11 0 0 -9 -12 -1 -30 20 -16 19 -30 29 -30 22 0 -7 -4 -10
-10 -7 -14 9 -12 -5 5 -35 8 -14 14 -29 14 -35 0 -5 -8 6 -19 25 -10 19 -17
42 -14 51 2 9 -3 22 -13 30 -15 12 -16 12 -10 -6 7 -20 7 -20 -8 0 -12 16 -18
17 -24 7 -7 -11 -10 -10 -15 3 -3 10 -12 15 -21 11 -8 -3 -17 -1 -20 4 -4 6
-11 10 -17 10 -7 0 -6 -6 2 -15 24 -29 4 -15 -30 22 -25 26 -29 33 -12 24 12
-6 22 -17 22 -24z m-8042 -440 c35 13 -223 -211 -330 -287 -31 -22 -74 -56
-95 -75 -21 -19 -43 -33 -49 -31 -6 2 -26 -9 -43 -25 -23 -20 -42 -29 -64 -28
-18 1 -43 -2 -57 -6 l-25 -8 19 22 c13 14 29 21 45 19 20 -2 26 2 26 15 0 19
27 39 58 44 11 2 28 10 40 18 12 8 28 15 35 15 8 0 26 10 40 21 l27 22 -34 -7
c-29 -5 -32 -4 -21 9 7 8 22 15 35 15 12 0 38 12 58 28 123 93 193 148 233
183 25 22 51 36 57 33 7 -4 9 -4 5 1 -4 4 -2 15 4 23 7 8 14 10 16 4 2 -6 11
-8 20 -5z m8923 -16 c-10 -6 -4 -11 20 -16 37 -8 125 -58 149 -85 8 -9 29 -25
47 -35 18 -10 30 -22 27 -27 -3 -4 0 -8 6 -8 6 0 19 -8 28 -17 16 -16 18 -21
21 -51 1 -8 6 -10 14 -6 9 6 9 4 1 -7 -8 -10 -6 -18 8 -31 10 -10 19 -18 21
-17 1 0 18 -4 37 -9 35 -10 35 -10 -17 -11 -29 -1 -97 -6 -151 -12 l-98 -10
-130 78 c-71 44 -166 99 -211 124 -46 24 -83 47 -83 50 0 16 111 54 193 66 23
3 58 11 77 18 42 15 60 18 41 6z"/>
<path d="M4968 5515 c0 -6 -2 -14 -3 -20 -1 -5 -9 -27 -18 -49 -9 -21 -17 -44
-17 -52 0 -7 -5 -16 -10 -19 -6 -4 -8 -10 -5 -15 7 -12 -5 -41 -15 -35 -5 3
-7 -6 -4 -20 3 -17 -1 -27 -11 -31 -15 -6 -16 -29 -1 -52 5 -8 1 -21 -10 -33
-14 -15 -20 -17 -32 -6 -13 10 -14 9 -3 -12 7 -13 8 -21 3 -17 -6 3 -18 -4
-26 -16 -12 -17 -13 -25 -4 -36 7 -8 13 -24 14 -35 2 -12 0 -16 -2 -9 -3 6
-10 9 -15 6 -6 -4 -6 -11 1 -19 8 -9 8 -15 0 -20 -6 -4 -10 -3 -9 2 1 4 0 10
-1 13 -7 18 -7 39 0 35 5 -3 11 -1 14 4 11 18 -11 21 -25 3 -16 -19 -18 -40
-5 -60 5 -9 1 -22 -13 -36 -15 -16 -18 -25 -10 -33 6 -6 11 -17 12 -24 2 -8 6
-20 11 -27 4 -7 3 -19 -4 -27 -7 -8 -7 -15 -1 -19 5 -4 8 -16 6 -28 -3 -11 -1
-17 3 -14 4 4 7 11 7 14 0 4 4 13 8 20 5 6 5 12 1 12 -3 0 -2 6 4 13 6 7 9 22
8 32 -2 11 2 26 8 34 8 11 8 13 -1 7 -7 -4 -14 -4 -14 1 -7 42 -2 62 22 98 30
44 36 65 19 65 -5 0 -7 -8 -3 -17 3 -10 3 -15 -1 -11 -4 3 -8 12 -10 20 -1 7
-5 19 -10 26 -4 7 -4 12 1 11 21 -4 32 3 38 22 6 17 9 19 17 8 7 -12 8 -11 7
1 -3 19 9 47 32 81 10 14 16 29 12 32 -3 4 -1 13 5 20 7 8 9 16 6 20 -3 3 0
16 7 29 7 12 12 34 11 48 -2 18 0 21 6 12 7 -11 10 -10 15 3 4 9 3 14 -2 11
-10 -7 -8 45 4 63 4 7 2 18 -4 24 -6 6 -12 7 -13 2z"/>
<path d="M2863 8878 c-4 -7 -8 -16 -8 -20 0 -5 -4 -7 -10 -5 -5 1 -9 6 -7 10
1 5 -2 6 -8 2 -8 -5 -8 -11 -1 -19 8 -10 5 -18 -9 -31 -11 -10 -20 -13 -20 -7
0 6 5 14 10 17 7 4 7 12 0 24 -5 10 -6 22 -2 26 4 5 1 5 -6 1 -9 -5 -9 -12 -2
-27 6 -10 7 -19 3 -19 -4 0 -19 -23 -32 -50 -26 -53 -40 -62 -20 -14 7 16 11
36 10 44 -2 13 -1 13 10 0 9 -13 10 -13 6 1 -3 9 -2 20 1 25 4 5 5 8 3 7 -2
-2 -11 3 -20 10 -14 11 -14 10 -2 -5 8 -11 9 -18 3 -18 -6 0 -16 8 -21 18 -6
9 -11 11 -11 5 0 -7 -4 -13 -10 -13 -5 0 -9 3 -7 8 1 4 -2 8 -8 9 -5 1 -9 -6
-7 -15 2 -15 1 -15 -10 -2 -18 20 -39 24 -32 5 4 -8 10 -13 14 -10 5 3 11 1
15 -4 3 -5 15 -8 26 -6 15 3 18 1 12 -8 -6 -7 -6 -29 -1 -54 8 -38 11 -41 36
-38 35 4 77 -32 61 -52 -8 -9 -8 -13 0 -13 6 0 11 5 11 12 0 6 6 4 13 -6 12
-16 13 -15 13 14 -1 53 50 46 58 -7 2 -10 6 -17 9 -15 4 1 10 2 13 2 4 0 2 6
-4 13 -8 9 -5 19 8 37 16 21 20 22 25 9 3 -9 5 -20 4 -25 -1 -5 -1 -17 0 -28
1 -15 4 -16 16 -6 8 7 12 17 8 24 -13 20 -11 35 5 48 13 11 14 11 7 -2 -15
-23 -15 -43 -2 -32 7 5 22 8 35 6 22 -4 28 4 15 22 -5 5 0 1 10 -9 12 -14 17
-15 17 -6 0 8 9 0 19 -17 25 -41 36 -47 51 -29 7 9 17 12 24 7 10 -7 31 -9 39
-2 12 9 39 5 44 -7 5 -12 7 -12 14 -1 7 10 9 10 9 -2 0 -13 1 -13 10 0 9 13
10 13 10 0 0 -13 1 -13 10 0 8 13 10 13 10 1 0 -11 4 -9 15 5 11 14 14 15 9 3
-7 -23 12 -33 21 -11 6 16 7 16 20 -1 11 -16 13 -16 19 -2 3 9 10 14 15 11 4
-3 6 7 4 22 -2 15 -4 36 -4 47 0 16 -2 17 -9 5 -5 -8 -5 -21 1 -31 6 -12 4
-19 -7 -23 -12 -4 -15 -2 -11 9 4 8 2 17 -4 21 -7 4 -6 10 0 18 8 9 5 18 -9
31 -11 10 -17 21 -15 25 3 4 -3 14 -13 21 -15 13 -16 12 -3 -3 7 -10 10 -18 5
-18 -4 0 3 -11 15 -24 15 -16 19 -26 11 -31 -7 -4 -8 -11 -1 -19 6 -7 6 -17 1
-26 -8 -13 -10 -12 -10 2 0 9 -4 19 -9 22 -5 4 -7 -4 -4 -16 4 -22 4 -22 -10
1 -8 14 -13 30 -11 36 3 6 -4 19 -15 29 -11 10 -18 23 -15 28 3 4 0 7 -8 6 -8
-2 -13 6 -12 20 1 12 -1 20 -4 17 -8 -8 -10 -54 -3 -52 3 1 6 -2 6 -8 0 -5 -4
-9 -9 -7 -5 2 -5 -3 1 -10 7 -9 6 -20 -2 -36 -10 -18 -14 -20 -18 -8 -3 8 -2
18 4 22 6 3 6 11 1 17 -5 7 -8 29 -7 49 1 21 -1 35 -4 32 -3 -3 -6 -19 -6 -35
0 -16 -4 -29 -10 -29 -5 0 -10 13 -10 29 0 16 -3 32 -6 35 -3 3 -4 -11 -3 -32
1 -20 3 -37 4 -37 1 0 3 -8 5 -18 2 -10 -1 -17 -7 -15 -12 4 -18 26 -21 75 -2
18 -5 34 -8 38 -8 8 -4 -69 5 -83 12 -20 -12 -22 -37 -2 -18 14 -24 28 -22 49
1 18 -2 29 -9 28 -6 -1 -9 5 -8 13 2 8 0 12 -4 8 -4 -4 -14 -2 -22 5 -9 6 -13
7 -9 1 4 -7 -8 -10 -37 -9 -37 2 -43 0 -39 -14 4 -9 3 -13 -2 -9 -4 4 -14 3
-22 -3 -19 -17 -16 -2 8 34 19 30 19 30 1 9 -14 -15 -22 -18 -25 -10 -4 10 -6
10 -6 1 -1 -7 -8 -10 -16 -7 -8 4 -12 11 -8 18 3 6 2 7 -2 3 -5 -4 -10 -13
-11 -20 -2 -7 -5 -22 -8 -34 -2 -12 2 -27 10 -33 7 -7 11 -17 8 -22 -6 -10
-41 32 -36 45 1 4 -1 6 -5 5 -5 -2 -8 2 -8 7 0 6 4 9 8 7 13 -4 21 28 9 40 -6
6 -12 6 -17 -3 -5 -8 -4 -10 3 -5 7 4 12 0 12 -10 0 -10 -3 -14 -7 -10 -4 3
-26 -13 -50 -36 -24 -23 -43 -38 -43 -32 0 6 16 25 35 44 19 18 33 36 30 38
-3 3 0 11 6 19 6 7 9 13 6 13 -3 0 -9 -6 -14 -12z m249 -46 c15 -15 19 -42 7
-42 -8 0 -13 14 -10 32 0 4 -8 5 -19 3 -11 -2 -20 0 -20 6 0 20 -16 8 -17 -13
-2 -18 0 -20 7 -8 11 17 10 17 15 -28 2 -19 7 -37 10 -40 4 -4 5 8 2 25 -3 18
-1 35 4 39 5 3 10 0 10 -5 1 -6 2 -17 3 -23 1 -7 -2 -22 -7 -33 -5 -11 -6 -17
-2 -13 5 4 15 2 23 -5 13 -10 14 -9 7 2 -5 9 -4 12 2 8 5 -3 10 0 10 8 0 11
-4 12 -13 4 -10 -8 -12 -6 -11 10 2 26 5 26 33 0 12 -11 28 -21 35 -23 8 -1
20 -5 27 -10 14 -8 26 -2 28 15 3 19 4 20 14 14 7 -5 8 -11 1 -18 -6 -8 -5
-20 3 -36 l13 -24 13 34 c13 35 17 45 19 55 2 13 30 -18 30 -34 0 -9 1 -26 3
-36 2 -17 -3 -20 -35 -21 -25 -1 -41 4 -44 13 -5 11 -7 11 -15 0 -6 -9 -7 -5
-3 12 l6 25 -14 -24 c-18 -30 -44 -35 -57 -11 -14 26 -12 33 6 26 9 -3 12 -2
9 5 -11 17 -30 4 -30 -21 0 -35 -32 -34 -51 1 -8 16 -19 27 -24 24 -15 -9 -41
37 -29 51 6 7 6 15 1 18 -5 3 -9 17 -9 31 0 21 3 24 29 21 16 -1 34 -8 40 -14z"/>
<path d="M12257 8530 c10 -13 3 -15 -48 -13 -34 1 -81 -6 -111 -17 -29 -9 -72
-23 -95 -30 -24 -7 -43 -17 -43 -22 0 -5 -8 -7 -19 -3 -10 3 -30 1 -45 -4 -17
-7 -26 -7 -26 -1 0 12 -59 9 -67 -3 -3 -5 -9 -3 -14 4 -7 11 -9 10 -9 -3 0
-21 67 -153 86 -169 11 -9 34 -9 94 -1 99 12 204 60 275 124 42 38 49 50 49
82 0 23 -7 43 -19 54 -11 10 -14 11 -8 2z"/>
<path d="M8900 5813 c0 -6 9 -18 20 -28 22 -20 28 -44 6 -26 -10 8 -16 9 -21
1 -3 -6 -11 -7 -17 -4 -7 5 -8 2 -2 -7 14 -23 14 -86 -1 -86 -7 0 -12 11 -12
23 0 14 4 21 10 17 5 -3 7 -1 4 5 -4 5 -15 9 -25 8 -9 -2 -22 4 -29 13 -18 24
-16 35 5 20 15 -12 16 -12 5 2 -7 9 -12 18 -10 20 1 3 -8 -6 -19 -19 -13 -14
-24 -20 -28 -14 -3 6 0 13 6 16 7 3 1 3 -14 1 -19 -2 -31 2 -38 13 -5 9 -10
13 -10 8 0 -5 -6 -4 -13 2 -10 8 -13 6 -14 -9 -1 -10 3 -19 9 -19 7 0 7 -4 0
-12 -17 -21 -19 -63 -3 -60 8 2 11 -3 8 -12 -6 -16 16 -40 26 -29 4 3 7 1 7
-5 0 -7 -4 -12 -10 -12 -17 0 -11 -18 13 -40 12 -12 22 -25 22 -31 0 -15 19
-11 21 5 1 9 -3 14 -8 13 -6 -1 -12 3 -15 10 -2 6 4 10 14 9 14 -2 18 -12 18
-45 1 -23 -3 -45 -9 -48 -5 -3 -6 -1 -2 5 3 6 2 13 -3 16 -11 7 -9 -13 2 -32
5 -7 2 -14 -7 -18 -21 -8 -36 3 -36 27 0 11 5 17 10 14 6 -3 10 1 10 9 0 8 -5
18 -12 22 -7 4 -8 3 -4 -4 4 -7 2 -12 -3 -12 -6 0 -11 -11 -11 -24 0 -14 -5
-28 -12 -32 -7 -5 -8 -2 -3 7 5 8 4 10 0 6 -15 -13 -14 -36 1 -30 8 3 14 0 14
-7 0 -6 -4 -8 -10 -5 -5 3 -10 0 -10 -7 0 -8 -5 -6 -11 5 -5 9 -17 17 -25 17
-8 0 -12 5 -9 10 4 6 10 8 14 5 5 -2 6 8 3 23 -5 24 -6 25 -11 6 -4 -13 -13
-20 -24 -18 -18 2 -18 1 -2 -16 11 -12 13 -20 6 -25 -6 -3 -11 -1 -11 6 0 18
-11 4 -14 -18 -2 -10 -9 -18 -16 -18 -17 0 -24 -21 -11 -30 7 -4 8 1 4 12 -6
16 -5 16 10 5 8 -8 14 -19 11 -27 -3 -7 0 -16 5 -20 6 -3 8 -12 5 -18 -4 -7
-3 -9 1 -4 5 4 18 -1 29 -10 12 -10 18 -14 14 -9 -4 5 -3 15 3 22 7 8 7 14 -1
19 -6 3 -8 10 -5 15 3 5 1 11 -5 15 -5 3 -10 -1 -10 -9 0 -8 5 -18 10 -21 6
-4 8 -11 4 -16 -4 -6 -11 -6 -20 2 -7 6 -11 16 -7 22 3 6 1 7 -5 3 -7 -4 -12
-3 -12 3 0 5 6 12 13 14 9 4 8 6 -2 6 -11 1 -11 4 -1 16 7 8 9 15 5 15 -4 0
-2 7 5 15 7 8 20 15 29 15 13 -1 12 -3 -4 -13 -11 -7 -21 -19 -23 -29 -3 -17
13 -19 38 -3 13 8 13 7 0 -10 -14 -17 -13 -18 4 -12 16 6 17 5 6 -8 -15 -18 0
-20 20 -2 8 6 6 2 -4 -10 -10 -12 -15 -26 -12 -32 4 -5 1 -13 -4 -16 -8 -5 -6
-13 4 -24 9 -10 13 -21 9 -25 -5 -4 -3 -6 2 -4 6 2 10 -1 10 -7 0 -5 -3 -9 -7
-8 -3 1 -5 -9 -3 -22 1 -14 -2 -25 -6 -25 -10 0 -12 10 -11 52 0 15 -7 33 -16
40 -9 7 -14 8 -10 4 4 -5 2 -16 -5 -25 -10 -14 -10 -14 4 -4 14 11 16 8 16
-29 0 -35 -2 -38 -12 -24 -11 14 -13 15 -18 1 -4 -8 -1 -14 5 -12 7 1 12 -3
13 -10 0 -6 4 -15 8 -20 5 -4 7 -3 5 2 -1 6 0 11 5 13 16 5 27 2 27 -9 0 -5
-4 -8 -9 -5 -12 8 -8 -18 6 -35 6 -8 9 -22 8 -32 -2 -9 1 -15 6 -11 5 3 7 9 4
14 -3 5 -1 11 5 15 10 6 14 -7 10 -35 -1 -10 3 -9 14 5 8 11 16 16 16 11 0 -5
7 -3 15 4 15 12 12 30 -5 30 -5 0 -7 -8 -3 -17 5 -15 3 -14 -10 2 -9 12 -12
24 -7 30 5 6 5 17 0 25 -5 8 -6 18 -3 24 4 5 0 6 -8 1 -8 -5 -11 -5 -7 0 4 4
3 16 -3 26 -7 14 -6 19 3 19 7 0 -3 13 -22 29 -29 24 -31 29 -13 24 13 -3 21
-9 18 -13 -3 -4 10 -15 28 -24 19 -9 25 -16 15 -16 -10 0 -18 -7 -18 -15 0 -8
5 -15 11 -15 5 0 7 5 4 10 -4 6 -3 10 2 9 17 -3 53 14 47 22 -3 5 2 9 10 9 9
0 16 7 16 16 0 10 -6 14 -14 11 -14 -6 -36 10 -36 27 0 5 6 2 13 -8 13 -17 14
-18 20 -2 4 9 3 15 -2 12 -4 -3 -13 6 -20 20 -6 15 -7 23 -1 19 5 -3 10 1 10
10 0 9 5 13 10 10 6 -3 10 -2 10 4 0 5 -5 11 -12 13 -7 3 -6 7 5 11 14 5 17 0
17 -24 0 -17 -4 -28 -9 -25 -5 3 -11 0 -14 -8 -4 -11 1 -13 21 -10 14 3 32 10
39 15 9 8 11 5 8 -11 -3 -16 0 -20 11 -16 9 3 12 2 9 -5 -10 -16 28 -6 43 11
10 13 11 12 5 -5 -3 -11 -10 -25 -14 -31 -5 -6 -5 -15 -1 -20 4 -5 -5 2 -20
15 -26 23 -48 22 -48 -2 0 -8 3 -8 9 1 6 10 10 10 20 -2 15 -18 -5 -34 -22
-17 -8 8 -16 6 -29 -6 -19 -17 -26 -69 -8 -58 6 4 7 12 4 18 -4 7 -3 8 1 4 18
-16 13 -36 -7 -32 -12 3 -23 7 -26 10 -3 2 -11 -3 -19 -13 -8 -9 -12 -12 -9
-5 4 6 2 14 -3 17 -12 8 -21 -18 -11 -34 10 -15 66 -20 100 -8 19 7 22 7 13
-3 -6 -6 -9 -19 -6 -28 3 -12 1 -11 -11 3 -9 11 -16 15 -16 9 0 -7 5 -15 10
-18 6 -4 8 -10 6 -14 -3 -4 1 -8 9 -8 8 0 11 5 8 10 -4 7 1 8 12 3 18 -6 18
-6 2 11 -15 17 -15 20 4 31 11 7 18 19 16 26 -3 7 1 13 8 13 8 0 13 -8 12 -18
-1 -10 -4 -16 -8 -13 -4 2 -12 -3 -19 -11 -11 -13 -8 -20 16 -45 16 -16 36
-30 44 -30 9 0 11 3 5 8 -20 14 -34 58 -23 73 8 11 9 11 5 -2 -4 -11 0 -16 11
-15 9 0 17 -4 17 -11 0 -6 3 -14 7 -18 3 -4 5 0 4 9 -1 8 -5 19 -9 22 -4 4 -1
14 6 23 11 14 10 14 -5 2 -11 -8 -18 -9 -18 -3 0 6 4 13 10 17 5 3 6 13 3 23
-5 14 -2 13 11 -3 10 -11 15 -14 11 -8 -4 9 -1 11 9 7 10 -4 18 1 22 11 5 13
9 14 15 3 5 -7 9 -17 9 -23 0 -5 -4 -4 -9 3 -6 10 -10 10 -20 -2 -9 -11 -9
-16 0 -22 8 -5 9 -3 4 6 -5 8 -3 11 6 8 8 -3 14 -11 14 -19 0 -8 7 -14 15 -14
8 -1 14 -6 12 -13 -3 -16 3 -15 18 4 8 8 9 14 4 13 -21 -4 -26 2 -13 18 8 9 9
14 2 10 -15 -9 -56 61 -50 85 3 10 1 21 -4 24 -13 8 -11 24 3 22 7 -2 13 3 14
10 3 26 5 27 14 12 6 -9 10 -10 10 -3 0 6 -5 15 -11 18 -7 5 -6 12 4 23 8 10
13 25 12 34 -2 10 1 20 6 24 5 3 7 10 4 15 -4 5 -1 9 4 9 11 0 15 -13 12 -40
-2 -13 0 -13 8 -1 7 11 10 10 14 -5 3 -12 4 -9 4 8 -1 15 -5 24 -9 22 -4 -3
-9 0 -9 5 -3 21 -4 26 -12 39 -5 7 -13 10 -19 6 -6 -4 -9 9 -7 35 2 22 -2 46
-9 53 -9 9 -10 5 -7 -14 5 -25 -19 -58 -32 -45 -3 4 -14 2 -24 -4 -14 -7 -17
-6 -13 5 3 8 0 17 -7 22 -7 4 -10 3 -6 -3 3 -5 0 -10 -7 -10 -7 0 -13 6 -13
14 0 7 11 13 24 13 13 0 22 4 18 10 -3 5 -13 6 -22 3 -15 -6 -16 -5 -3 10 14
15 16 15 32 -3 12 -15 18 -17 22 -8 4 9 5 8 5 -2 -2 -30 1 -41 11 -35 6 4 5
16 -1 33 -6 15 -9 28 -7 29 2 1 -1 5 -5 10 -5 4 -8 4 -7 -2 5 -22 -1 -26 -16
-10 -12 12 -19 13 -30 4 -20 -16 -35 -2 -25 24 5 12 10 27 11 32 1 6 4 12 7
15 4 3 3 0 -1 -7 -3 -6 -2 -14 3 -17 14 -9 7 22 -9 37 -10 9 -11 9 -6 -1 5 -8
0 -11 -16 -8 -13 3 -26 5 -30 5 -5 1 -8 13 -9 29 0 23 -2 24 -8 8 -6 -17 -8
-17 -14 -3 -8 22 17 42 32 24 6 -8 7 -18 3 -23 -4 -4 1 -2 11 5 9 7 17 19 17
25 0 6 -4 5 -9 -3 -6 -10 -10 -10 -16 -1 -4 7 1 13 13 17 11 3 23 12 26 20 3
7 2 12 -3 8 -5 -3 -11 -2 -14 2 -2 5 -3 3 -1 -4 4 -19 -28 -8 -48 16 -10 13
-18 19 -18 14z"/>
<path d="M4553 4561 c1 -11 5 -21 9 -21 4 0 -2 -11 -14 -25 -11 -13 -25 -22
-30 -19 -4 3 -8 0 -8 -6 0 -6 -12 -22 -27 -36 -15 -14 -19 -22 -10 -18 23 8
21 -3 -7 -51 -12 -22 -28 -39 -35 -37 -7 1 -15 -7 -19 -20 -5 -21 -6 -21 -14
-2 -7 19 -8 19 -7 -1 2 -42 0 -48 -15 -36 -12 10 -14 9 -11 -6 1 -10 -1 -25
-6 -34 -6 -13 -2 -15 24 -15 26 1 33 -3 35 -21 2 -13 8 -23 13 -23 5 0 9 -5 9
-11 0 -5 -4 -8 -8 -5 -4 2 -9 -5 -9 -17 -2 -17 0 -19 7 -7 5 8 15 15 21 15 7
0 14 7 16 15 4 12 3 12 -5 2 -7 -11 -10 -10 -16 3 -4 13 -1 16 17 13 13 -2 21
-9 19 -18 -2 -8 0 -12 4 -7 4 4 9 18 11 30 2 17 1 19 -7 7 -8 -13 -10 -13 -10
1 0 24 11 30 29 17 13 -10 14 -10 4 2 -15 16 -17 34 -4 26 9 -6 29 13 30 29 1
6 6 11 11 11 6 1 13 3 18 4 4 1 12 2 17 0 6 -1 4 4 -2 11 -7 7 -13 17 -13 22
0 4 6 5 13 1 6 -4 9 -4 5 1 -4 4 -3 13 2 20 7 8 5 12 -5 12 -8 0 -13 -3 -10
-5 3 -3 0 -11 -5 -18 -6 -6 -9 -18 -8 -25 2 -7 -2 -13 -9 -14 -15 0 -28 -13
-28 -28 -1 -7 -6 -11 -13 -9 -7 1 -15 -5 -19 -14 -5 -13 -7 -13 -14 -2 -12 18
-11 31 1 23 6 -4 7 1 3 12 -6 16 -5 17 13 3 17 -14 18 -13 7 1 -7 9 -9 20 -5
24 4 5 1 4 -7 0 -11 -6 -13 -4 -8 10 4 9 2 24 -4 32 -7 7 -9 16 -5 20 3 3 6 0
6 -8 0 -11 2 -11 10 1 13 21 12 33 -2 24 -7 -4 -3 6 9 22 11 16 19 37 18 47
-2 9 1 15 6 11 5 -3 9 0 9 5 0 6 5 11 11 11 8 0 8 -4 0 -14 -8 -10 -9 -16 -1
-21 5 -3 10 -12 10 -18 0 -8 -3 -8 -9 2 -6 9 -11 10 -15 2 -4 -6 -2 -11 4 -11
6 0 8 -5 4 -11 -4 -8 -9 -7 -16 2 -8 11 -9 11 -5 -1 2 -8 9 -14 15 -13 6 2 6
-8 -1 -28 -9 -23 -13 -26 -18 -12 -5 15 -6 15 -12 0 -3 -9 -2 -17 4 -17 6 0 8
-4 4 -9 -3 -5 -1 -12 5 -16 6 -4 7 -11 4 -17 -5 -7 -2 -8 5 -3 8 4 9 11 3 17
-10 10 6 58 20 58 8 0 5 -21 -5 -37 -4 -6 -2 -15 4 -19 7 -4 9 -3 5 4 -3 6 -2
13 3 16 5 3 7 19 6 36 -1 16 4 35 12 41 12 10 13 8 10 -12 -4 -20 -1 -25 17
-25 16 0 22 6 22 23 0 12 -2 20 -5 17 -4 -3 -6 -10 -6 -15 0 -5 -3 -9 -7 -9
-5 0 -10 0 -13 0 -3 0 -1 9 5 19 9 17 7 19 -10 16 -11 -2 -20 0 -20 6 0 5 6 9
13 9 8 0 7 4 -3 10 -13 9 -13 10 0 10 12 1 11 3 -3 11 -13 8 -15 14 -7 30 6
11 16 17 22 13 8 -5 -6 22 -28 55 -2 2 -2 -6 -1 -18z"/>
<path d="M4398 4088 c-3 -7 -6 -17 -7 -23 -2 -5 -12 -25 -23 -44 -21 -33 -21
-34 -2 -65 10 -17 17 -32 16 -33 -6 -8 -1 -23 8 -23 6 0 9 6 8 13 -2 6 3 12
10 11 6 -1 21 -2 33 -2 11 -1 17 -7 14 -12 -4 -6 -12 -7 -18 -3 -7 4 -5 -2 3
-13 22 -29 24 -30 18 -14 -6 17 20 55 37 55 6 0 15 -4 22 -8 7 -4 10 -1 8 10
-1 10 7 32 17 48 l20 30 -21 -24 c-13 -14 -21 -18 -21 -10 0 11 -3 11 -10 -1
-8 -11 -10 -8 -8 15 3 26 -1 30 -22 32 -22 1 -22 1 -2 -4 30 -6 28 -18 -3 -18
-24 0 -32 16 -26 49 1 5 -5 4 -13 -4 -13 -10 -16 -10 -16 1 0 8 -6 5 -15 -7
-15 -19 -15 -19 -12 1 1 11 6 26 11 33 4 7 6 15 3 18 -2 3 -7 -1 -9 -8z"/>
<path d="M3805 3731 c-3 -2 0 -10 6 -17 15 -18 2 -39 -16 -24 -14 11 -14 11
-42 -35 -26 -42 -25 -47 5 -78 16 -18 28 -40 27 -50 -3 -18 -3 -18 16 -1 10 9
19 27 19 39 0 24 29 44 31 22 7 -60 3 -81 -11 -72 -5 3 -5 19 0 35 5 18 5 30
-1 30 -5 0 -10 -11 -10 -25 -1 -14 -2 -31 -3 -37 -4 -22 5 -30 19 -18 10 8 16
7 25 -7 11 -17 11 -17 6 1 -5 14 -2 17 11 12 15 -5 14 -3 -2 9 -13 10 -20 28
-20 49 0 19 3 32 8 29 4 -2 7 3 7 12 0 9 -4 14 -8 11 -4 -2 -9 5 -9 17 -2 20
-1 20 8 5 12 -22 36 -24 36 -3 0 11 -4 12 -14 4 -7 -7 -13 -7 -13 -2 0 6 -12
23 -26 38 -18 20 -22 31 -15 38 6 6 11 14 11 17 0 7 -39 8 -45 1z"/>
<path d="M2945 831 c-6 -5 -23 -12 -40 -15 -16 -3 -40 -8 -52 -11 -13 -4 -33
0 -52 11 -25 15 -34 16 -56 6 -15 -7 -31 -10 -36 -7 -5 3 -18 1 -31 -6 -18
-10 -24 -9 -34 6 -11 14 -21 16 -61 10 -43 -7 -45 -9 -23 -16 25 -8 -94 -2
-137 7 -12 2 -24 1 -26 -3 -3 -5 11 -9 31 -11 106 -7 155 -20 148 -38 -3 -8
-1 -14 5 -14 6 0 8 -4 5 -9 -3 -4 27 -7 67 -5 76 4 124 5 171 3 17 -1 34 5 41
15 15 20 55 21 80 2 17 -12 23 -12 47 0 15 8 30 19 34 25 5 8 3 9 -7 4 -8 -5
-5 1 5 13 11 12 17 22 15 23 -2 0 -15 2 -29 3 -14 2 -32 6 -40 10 -9 3 -20 2
-25 -3z"/>
<path d="M4392 423 c9 -11 6 -12 -15 -4 -15 6 -28 7 -31 2 -6 -9 -68 -7 -86 4
-9 5 -11 4 -6 -3 9 -15 1 -15 -27 0 -21 11 -21 10 -7 -7 10 -12 10 -16 2 -11
-7 4 -20 2 -29 -6 -14 -11 -16 -11 -9 0 7 11 4 12 -13 3 -11 -7 -21 -9 -21 -5
0 3 -7 0 -17 -7 -9 -8 -24 -13 -33 -11 -12 2 -21 -7 -28 -26 -9 -27 -9 -29 11
-25 12 3 27 12 34 21 10 12 15 13 28 2 10 -8 15 -9 15 -1 0 6 -5 11 -11 11 -8
0 -8 5 1 15 16 19 31 10 23 -13 -6 -15 -4 -15 9 -4 14 11 16 10 11 -7 -7 -28
24 -21 83 20 26 18 44 27 40 21 -4 -7 -3 -12 3 -12 5 0 13 5 16 10 4 7 11 7
18 2 17 -13 77 -20 83 -10 3 5 10 5 16 2 7 -4 8 -2 4 5 -4 6 -11 9 -15 7 -4
-3 -8 2 -8 10 0 9 6 13 14 10 8 -3 12 -2 9 3 -3 5 -21 11 -40 13 -28 3 -33 1
-24 -9z"/>
</g>
</svg>
